<?xml version="1.0" encoding="utf-8"?>
<!-- Generator: Adobe Illustrator 16.0.0, SVG Export Plug-In . SVG Version: 6.00 Build 0)  -->
<!DOCTYPE svg PUBLIC "-//W3C//DTD SVG 1.1//EN" "http://www.w3.org/Graphics/SVG/1.1/DTD/svg11.dtd">
<svg version="1.1" id="Layer_1" xmlns="http://www.w3.org/2000/svg" xmlns:xlink="http://www.w3.org/1999/xlink" x="0px" y="0px"
	 width="200px" height="200px" viewBox="0 0 200 200" enable-background="new 0 0 200 200" xml:space="preserve">
<g>
	<g>
		<path fill-rule="evenodd" clip-rule="evenodd" d="M19.354,18.705c0,0,46.362-16.959,80.643-13.723
			c1.424,4.747,15.438,51.473,15.438,51.473s16.85-10.945,37.753,5.853l28.197,23.245c0,0,8.174,3.235,4.986,25.805
			c0,0,0.164,30.672-28.039,32.6c0,0,18.346,12.486,20.593,18.873l-91.397,32.6c0,0-10.391-19.553-20.134-25.736
			c0,0-18.364,4.666-24.017,5.145c-11.106,0.943-37.165-42.07-29.173-94.363c8.216-4.223,18.879-5.147,18.879-5.147
			S17.634,21.234,19.354,18.705z"/>
		<line fill="none" stroke="#FFFFFF" stroke-miterlimit="10" x1="69.097" y1="131.436" x2="159.956" y2="104.201"/>
		<circle fill="#FFFFFF" cx="147.184" cy="70.081" r="4.271"/>
		<path fill="#FFFFFF" d="M175.049,88.788c0,2.363-1.909,4.271-4.271,4.271c-2.352,0-4.266-1.909-4.266-4.271
			c0-2.357,1.914-4.269,4.266-4.269C173.14,84.519,175.049,86.431,175.049,88.788z"/>
		<polygon fill="#FFFFFF" points="48.594,71.662 37.961,32.552 88.692,21.205 99.816,59.539 		"/>
	</g>
	<polygon fill="#FFFFFF" points="103.494,177.271 90.098,160.203 138.047,145.025 152.733,160.707 	"/>
</g>
</svg>
