<?xml version="1.0" encoding="utf-8"?>
<!-- Generator: Adobe Illustrator 16.0.0, SVG Export Plug-In . SVG Version: 6.00 Build 0)  -->
<!DOCTYPE svg PUBLIC "-//W3C//DTD SVG 1.1//EN" "http://www.w3.org/Graphics/SVG/1.1/DTD/svg11.dtd">
<svg version="1.1" id="Layer_1" xmlns="http://www.w3.org/2000/svg" xmlns:xlink="http://www.w3.org/1999/xlink" x="0px" y="0px"
	 width="200px" height="200px" viewBox="0 0 200 200" enable-background="new 0 0 200 200" xml:space="preserve">
<path d="M117.004,188.249c-0.875-1.598-1.574-4.234-1.574-6.505v-1.478c0-3.543,1.313-6.938,3.702-9.586l1.42-1.557l-0.313-0.251
	l-1.343-1.061c-3.459-2.739-5.438-6.821-5.442-11.215v-1.478c0.004-4.136,1.804-8.079,4.944-10.805l1.583-1.376l-1.465-1.499
	c-2.629-2.688-4.076-6.231-4.076-9.988v-1.482c0-5.579,3.292-10.692,8.388-13.016l2.315-1.057l-1.603-1.978
	c-2.079-2.571-3.179-5.676-3.179-8.981l0.533-4.766l-3.751-0.023l-0.806,3.245c-0.102,0.378-0.204,0.761-0.308,1.131
	c-2.583,9.588-6.149,16.729-11.229,22.499c-9.147,10.371-20.348,16.349-31.75,16.979v-2.406v-1.035l0,0v-1.49
	c9.939-0.611,19.831-5.997,28.052-15.316c4.553-5.156,7.781-11.672,10.162-20.508c0.531-1.982,1.099-3.989,1.742-6.129l0.049-0.147
	c0.458-1.55,0.902-2.966,1.361-4.34l0.163-0.494c0.464-1.377,0.907-2.651,1.348-3.848l0.006-0.021
	c1.998-5.396,4.206-10.245,6.754-14.811c0.677-1.199,1.343-2.371,1.998-3.506c3.8-6.643,7.075-12.384,8.629-19.385
	c1.498-6.679,2.255-12.706,2.251-17.92c0.004-5.33-0.78-9.9-2.335-13.601c-1.837-4.313-4.501-7.311-8.385-9.449
	c-0.868-0.47-1.884-0.719-3.073-0.719c-1.882,0-4.104,0.779-5.788,2.014c-1.758,1.258-3.018,3.007-3.349,4.629
	c-0.469,2.042-0.877,4.028-1.282,6.007c-1.085,5.255-2.109,10.213-4.037,15.935l-0.548,1.603c-2.251,6.66-4.574,13.552-8.629,19.942
	c-5.935,9.208-13.855,15.076-21.513,20.75c-4.016,2.97-7.803,5.782-11.332,9.03c-6.811,6.177-13.913,10.952-21.115,14.241v-8.943
	H7.577v74.789v22.25h36.604v-10.312v-1.389c3.387,1.324,6.498,3.131,9.541,4.907l0.977,0.558c5.081,3.012,14.03,6.228,24.746,6.228
	l35.8,0.008h4.397C119.643,191.123,117.877,189.854,117.004,188.249z M162.901,170.915l-0.064-0.003h-0.034l0,0
	c-0.159-0.013-0.322-0.02-0.488-0.02l-32.573-0.006c-0.14,0-0.295,0.01-0.497,0.025h-0.028l-0.067,0.003
	c-4.917,0.313-8.775,4.42-8.786,9.352v1.478c0.007,4.421,3.148,8.283,7.465,9.181l0.217,0.05h0.074
	c0.534,0.093,1.08,0.148,1.619,0.148h32.577h0.003c5.162-0.008,9.361-4.214,9.375-9.379v-1.478
	C171.679,175.335,167.82,171.229,162.901,170.915z M192.413,103.459c-0.007-5.16-4.21-9.368-9.373-9.375h-48.366
	c-1.146,0-2.259,0.222-3.321,0.624h-0.055l-0.336,0.147c-0.016,0.007-0.021,0.007-0.027,0.007v0.01
	c-3.422,1.495-5.623,4.862-5.638,8.589v1.479c0.015,5.16,4.211,9.37,9.379,9.38h48.364h0.005c5.158-0.016,9.361-4.22,9.379-9.382
	L192.413,103.459z M177.116,119.683l-48.365,0.006c-5.162,0.004-9.364,4.216-9.374,9.374v1.484c0.01,4.986,3.921,9.096,8.902,9.352
	h0.049h0.054h48.734l0,0c5.169-0.009,9.368-4.188,9.383-9.359l-0.005-1.484C186.484,123.904,182.285,119.692,177.116,119.683z
	 M172.724,145.316h-0.013v-0.005l-0.114-0.009c-0.134-0.012-44.828-0.012-44.828-0.012c-5.16,0-9.372,4.21-9.38,9.373v1.484
	c0.008,5.164,4.22,9.362,9.38,9.373h44.419l0,0c5.165,0,9.369-4.209,9.375-9.377l-0.006-1.483
	C181.557,149.711,177.674,145.603,172.724,145.316z"/>
</svg>
