<?xml version="1.0" encoding="utf-8"?>
<!-- Generator: Adobe Illustrator 16.0.0, SVG Export Plug-In . SVG Version: 6.00 Build 0)  -->
<!DOCTYPE svg PUBLIC "-//W3C//DTD SVG 1.1//EN" "http://www.w3.org/Graphics/SVG/1.1/DTD/svg11.dtd">
<svg version="1.1" id="Layer_1" xmlns="http://www.w3.org/2000/svg" xmlns:xlink="http://www.w3.org/1999/xlink" x="0px" y="0px"
	 width="200px" height="200px" viewBox="0 0 200 200" enable-background="new 0 0 200 200" xml:space="preserve">
<g>
	<path d="M98.189,153.573c-3.873-1.414-8.075-0.156-10.635,2.826l2.284-59.465l-35.162,23.607l-13.7-7.745
		c-0.273,0.978-0.785,1.968-1.733,2.684c-0.436,0.326-0.921,0.554-1.453,0.697c-0.725,0.202-1.533,0.228-2.428,0.085
		c-0.822-0.131-1.71-0.397-2.667-0.828c-6.583-2.911-7.554-11.068-7.687-14.031L8.592,91.228l3.456,65.746l43.206,28.907
		l12.004-8.163c-0.231,0.543-0.365,1.129-0.365,1.754c0,2.48,2.02,4.508,4.512,4.508c0.433,0,0.86-0.06,1.27-0.183
		c0.837,0.971,2.068,1.55,3.396,1.55c1.042,0,2.036-0.371,2.824-1.003c0.787,0.632,1.778,1.003,2.818,1.003
		c1.338,0,2.56-0.579,3.401-1.55c0.406,0.123,0.839,0.183,1.27,0.183c2.492,0,4.509-2.027,4.509-4.508
		c0-1.868-1.132-3.472-2.75-4.161c0.124-0.412,0.211-0.835,0.283-1.258c0.792,0.162,1.612,0.11,2.368-0.15
		c0.518,0.873,1.326,1.551,2.306,1.909c1.257,0.456,2.603,0.33,3.72-0.287c0.343,0.254,0.729,0.456,1.133,0.605
		c2.339,0.848,4.931-0.364,5.789-2.697c0.631-1.751,0.11-3.652-1.174-4.851c0.577-0.769,1.04-1.622,1.367-2.527
		C105.776,160.993,103.191,155.39,98.189,153.573z M89.496,179.472c0,1.719-1.391,3.112-3.114,3.112
		c-0.671,0-1.284-0.214-1.786-0.572c-0.467,1.133-1.58,1.935-2.885,1.935c-1.253,0-2.326-0.749-2.818-1.812
		c-0.492,1.063-1.565,1.812-2.824,1.812c-1.301,0-2.412-0.802-2.877-1.935c-0.506,0.358-1.121,0.572-1.789,0.572
		c-1.723,0-3.114-1.394-3.114-3.112s1.391-3.112,3.114-3.112c0.059,0,0.121,0.013,0.181,0.019c-0.21-0.397-0.376-0.821-0.521-1.25
		c-0.276-0.841-0.438-1.727-0.438-2.666c0-4.616,3.702-8.361,8.265-8.361c0.929,0,1.805,0.188,2.639,0.475
		c0.437,0.149,0.85,0.332,1.247,0.548c0.535,0.293,1.033,0.632,1.489,1.036c1.59,1.38,2.635,3.353,2.828,5.587
		c0.016,0.241,0.068,0.476,0.068,0.716c0,0.365-0.022,0.725-0.068,1.075c-0.127,1.017-0.437,1.975-0.893,2.841
		c0.063-0.006,0.124-0.019,0.183-0.019C88.105,176.359,89.496,177.753,89.496,179.472z M102.622,165.571
		c-0.481,1.329-1.261,2.456-2.237,3.348c0.055,0.013,0.112,0.021,0.179,0.048c1.612,0.586,2.441,2.368,1.857,3.985
		c-0.589,1.621-2.375,2.449-3.99,1.862c-0.629-0.229-1.131-0.645-1.482-1.152c-0.831,0.911-2.15,1.283-3.368,0.833
		c-1.186-0.424-1.935-1.498-2.036-2.664c-0.762,0.769-1.899,1.088-2.997,0.795c0-0.052,0.01-0.111,0.01-0.164
		c0-2.813-1.205-5.335-3.098-7.117c-0.502-0.47-1.051-0.881-1.642-1.231c0.778-0.469,1.743-0.606,2.665-0.268
		c0.055,0.02,0.107,0.052,0.163,0.072c-0.18-1.304-0.052-2.671,0.43-4c0.104-0.273,0.251-0.508,0.372-0.769
		c1.843-3.817,6.24-5.732,10.267-4.268C102.002,156.446,104.201,161.233,102.622,165.571z"/>
	<path d="M14.582,91.175c0,0.514,0.101,0.997,0.27,1.459c0.082,0.221,0.183,0.436,0.3,0.645c0.566,1.003,1.521,1.759,2.667,2.051
		c0.346,0.085,0.694,0.151,1.065,0.151c0.006,0,0.006,0,0.01,0c0.414,0,0.817-0.059,1.205-0.176c0.801,0.925,1.97,1.479,3.244,1.479
		c0.319,0,0.635-0.053,0.938-0.124l4.381,2.715l-0.013,0.704l-0.009,0.345c0,0.026-0.01,0.827,0.111,2
		c0.042,0.443,0.114,0.938,0.208,1.472c0.036,0.216,0.078,0.438,0.129,0.672c0.023,0.123,0.056,0.254,0.088,0.385
		c0.202,0.865,0.485,1.771,0.87,2.657c0.814,1.863,2.091,3.596,4.12,4.488c1.621,0.717,2.556,0.71,2.89,0.47
		c0.492-0.372,0.617-1.733,0.52-2.528l-0.075-0.618c0.095,0.006,0.183,0.032,0.277,0.032c0.172,0,0.342-0.026,0.511-0.046
		c0.668-0.078,1.296-0.319,1.85-0.685c0.107-0.071,0.225-0.143,0.329-0.221c0.524,0.417,1.15,0.71,1.814,0.854l4.593,2.592
		l3.619,2.039l4.019,2.268l1.743-1.166l2.448-1.648c-0.438-0.306-0.807-0.716-1.031-1.212c-0.471,1.023-1.495,1.727-2.687,1.727
		c-1.248,0-2.306-0.762-2.752-1.837c-0.482,0.339-1.068,0.541-1.707,0.541c-1.642,0-2.968-1.329-2.968-2.971
		c0-0.58,0.17-1.121,0.459-1.576c1.501-0.144,2.766-1.043,3.417-2.326c0.304-0.586,0.486-1.237,0.486-1.94
		c0-1.382-0.671-2.6-1.69-3.388c0.042-0.124,0.068-0.254,0.114-0.378c0.065-0.163,0.146-0.319,0.222-0.482
		c0.111,0.014,0.225,0.033,0.342,0.033c1.271,0,2.437-0.553,3.241-1.473c0.388,0.111,0.802,0.169,1.21,0.169
		c1.948,0,3.574-1.303,4.11-3.081c2.531,0.6,4.589,2.423,5.531,4.833c0.218,0.567,0.361,1.153,0.446,1.772
		c-0.459,0.463-0.802,1.036-1.016,1.654c-0.254,0.742-0.31,1.564-0.114,2.385c0.267,1.101,0.944,1.986,1.814,2.566l0.971-0.651
		l0.276-0.183c-0.847-0.352-1.527-1.081-1.759-2.045c-0.205-0.848-0.016-1.688,0.434-2.359c0.211-0.305,0.472-0.579,0.788-0.787
		c0.287-0.195,0.609-0.353,0.961-0.438c0.062-0.012,0.117-0.012,0.179-0.025c-0.495-0.561-0.895-1.192-1.221-1.889
		c-0.228-0.476-0.42-0.984-0.554-1.524c-0.365-1.519-0.26-3.042,0.199-4.423c1.206-0.046,2.313-0.573,3.075-1.453
		c0.394,0.11,0.801,0.169,1.214,0.169c2.283,0,4.136-1.785,4.278-4.032c3.103,0.463,5.78,2.756,6.575,6.026
		c0.261,1.081,0.28,2.162,0.107,3.197l1.434-0.963l5.82-3.909l-14.568-6.873c-0.469-0.754-1.146-1.361-1.97-1.713
		c0.267-0.879,0.402-1.798,0.402-2.715c0-5.139-4.139-9.321-9.227-9.321c-3.476,0-6.472,1.98-8.047,4.858l-2.208-1.048
		c-0.459-0.906-1.192-1.648-2.13-2.052c0.271-0.872,0.401-1.791,0.401-2.71c0-5.138-4.14-9.32-9.224-9.32
		c-5.085,0-9.225,4.182-9.225,9.32c0,0.92,0.138,1.838,0.404,2.71c-0.988,0.424-1.748,1.218-2.197,2.189l-0.329,0.163
		c-1.437-0.925-3.127-1.479-4.958-1.479c-4.854,0-8.804,3.824-9.153,8.645l-7.317,3.707l5.089,3.165
		C14.637,90.856,14.582,91.006,14.582,91.175z M50.582,103.846c0,0.566-0.163,1.08-0.43,1.523c-0.173,0.293-0.394,0.548-0.652,0.756
		c-0.511,0.43-1.163,0.697-1.885,0.697c-0.072,0-0.137-0.033-0.206-0.033c-0.276-0.02-0.54-0.064-0.788-0.156
		c-0.254-0.091-0.498-0.208-0.713-0.357c-0.078,0.194-0.202,0.364-0.322,0.54c-0.534,0.781-1.407,1.303-2.426,1.303
		c-0.652,0-1.238-0.222-1.723-0.573c-0.414-0.299-0.756-0.69-0.968-1.153c-0.248,0.535-0.658,0.978-1.16,1.283
		c-0.176,0.111-0.375,0.202-0.576,0.274c-0.118,0.039-0.244,0.059-0.368,0.085c-0.192,0.039-0.381,0.084-0.586,0.084
		c-0.16,0-0.3-0.045-0.453-0.071c-1.038-0.156-1.911-0.827-2.297-1.771c-0.48,0.338-1.075,0.547-1.705,0.547
		c-0.232,0-0.457-0.033-0.665-0.078c-0.847-0.202-1.543-0.756-1.941-1.499c-0.228-0.417-0.368-0.886-0.368-1.399
		c0-1.643,1.329-2.964,2.974-2.964c0.055,0,0.11,0.013,0.17,0.013c-0.138-0.261-0.259-0.534-0.366-0.814
		c-0.352-0.899-0.55-1.882-0.55-2.911c0-0.599,0.081-1.186,0.202-1.746c0.097-0.443,0.224-0.867,0.394-1.277
		c0.594-1.478,1.61-2.735,2.9-3.608c0.381-0.261,0.781-0.476,1.205-0.665c0.609-0.273,1.26-0.456,1.941-0.56
		c0.407-0.065,0.817-0.13,1.244-0.13c0.026,0,0.049,0.006,0.075,0.006c4.173,0.039,7.543,3.361,7.775,7.529
		c0.006,0.158,0.042,0.294,0.042,0.451c0,0.521-0.062,1.022-0.156,1.511s-0.222,0.958-0.394,1.4
		c-0.108,0.28-0.228,0.554-0.365,0.814c0.056,0,0.111-0.013,0.173-0.013c0.364,0,0.712,0.071,1.042,0.195
		c0.482,0.183,0.905,0.488,1.231,0.88C50.315,102.477,50.582,103.128,50.582,103.846z M55.655,81.867
		c0-1.427,0.397-2.743,1.044-3.896c1.354-2.43,3.894-4.09,6.845-4.09c4.361,0,7.893,3.569,7.893,7.986
		c0,0.99-0.186,1.94-0.511,2.813c-0.118,0.32-0.254,0.62-0.404,0.913c0.055,0,0.111-0.013,0.171-0.013
		c1.239,0,2.294,0.748,2.74,1.823c0.15,0.352,0.227,0.736,0.227,1.146c0,0.059-0.011,0.117-0.011,0.183
		c-0.1,1.55-1.379,2.788-2.956,2.788c-0.637,0-1.224-0.208-1.706-0.547c-0.342,0.84-1.059,1.473-1.941,1.72
		c-0.258,0.071-0.524,0.123-0.809,0.123c-0.234,0-0.453-0.052-0.673-0.098c-0.896-0.214-1.642-0.814-2.017-1.635
		c-0.472,1.023-1.495,1.732-2.691,1.732c-0.583,0-1.12-0.182-1.576-0.468c-0.438-1.023-1.225-1.856-2.246-2.293
		c0.267-0.879,0.402-1.791,0.402-2.71c0-2.044-0.672-3.914-1.782-5.458C55.655,81.88,55.655,81.874,55.655,81.867z M54.363,82.394
		c0.73,0.933,1.282,2.021,1.547,3.231c0.116,0.554,0.191,1.127,0.191,1.719c0,1.342-0.331,2.613-0.918,3.727
		c0.06,0,0.118-0.013,0.176-0.013c0.532,0,1.024,0.15,1.461,0.391c0.672,0.384,1.177,1.016,1.392,1.785
		c0.044,0.169,0.068,0.339,0.088,0.521c0.01,0.084,0.031,0.175,0.031,0.267c0,0.372-0.075,0.723-0.2,1.049
		c-0.427,1.121-1.497,1.921-2.772,1.921c-0.642,0-1.227-0.201-1.707-0.541c-0.383,0.932-1.236,1.597-2.259,1.765
		c-0.163,0.033-0.316,0.079-0.485,0.079c-0.372,0-0.71-0.091-1.033-0.209c-0.085-0.032-0.163-0.071-0.238-0.111
		c0.023-0.273,0.056-0.54,0.056-0.807c0-5.14-4.14-9.321-9.228-9.321c-0.039,0-0.072,0.012-0.111,0.012
		c-0.013-0.169-0.033-0.345-0.033-0.515c0-1.4,0.384-2.689,1.003-3.83c0.4-0.736,0.892-1.4,1.491-1.974
		c1.414-1.341,3.303-2.182,5.394-2.182c1.268,0,2.443,0.326,3.502,0.86c0.4,0.202,0.785,0.43,1.146,0.697
		C53.425,81.339,53.921,81.841,54.363,82.394z M35.189,75.308c0.063,0,0.114,0.012,0.174,0.012
		c-0.122-0.228-0.226-0.475-0.324-0.716c-0.38-0.931-0.596-1.948-0.596-3.011c0-4.416,3.537-7.985,7.892-7.985
		c4.354,0,7.892,3.57,7.892,7.985c0,1.076-0.222,2.098-0.605,3.037c-0.095,0.234-0.196,0.47-0.313,0.69
		c0.059,0,0.117-0.012,0.172-0.012c1.642,0,2.974,1.329,2.974,2.963c0,0.273-0.052,0.534-0.118,0.782
		c-1.247-0.639-2.635-1.029-4.127-1.029c-3.296,0-6.175,1.771-7.804,4.41c-0.245,0.065-0.496,0.11-0.763,0.11
		c-1.243,0-2.307-0.761-2.746-1.843c-0.485,0.339-1.071,0.541-1.709,0.541c-0.193,0-0.382-0.021-0.557-0.052
		c-0.51-1.349-1.318-2.547-2.355-3.512C32.553,76.323,33.75,75.308,35.189,75.308z M18.884,88.205c0.062,0,0.117,0.013,0.173,0.02
		c-0.583-1.114-0.912-2.385-0.912-3.733c0-0.475,0.055-0.931,0.137-1.388c0.651-3.745,3.863-6.598,7.749-6.598
		c1.277,0,2.463,0.339,3.528,0.879c0.472,0.241,0.916,0.528,1.332,0.854c1.27,1.016,2.218,2.411,2.679,4.02
		c0.208,0.716,0.352,1.452,0.352,2.233c0,1.349-0.327,2.619-0.912,3.733c0.056-0.007,0.113-0.02,0.174-0.02
		c0.941,0,1.771,0.449,2.316,1.133c-1.632,1.062-2.899,2.619-3.613,4.468c-0.14-0.071-0.29-0.117-0.41-0.208
		c-0.446,1.082-1.512,1.844-2.75,1.844c-1.199,0-2.228-0.71-2.69-1.726c-0.476,1.016-1.499,1.726-2.694,1.726
		c-1.241,0-2.306-0.762-2.746-1.844c-0.212,0.15-0.453,0.254-0.694,0.345c-0.32,0.124-0.658,0.202-1.02,0.202
		c-1.534,0-2.775-1.159-2.934-2.651c-0.01-0.104-0.033-0.208-0.033-0.319C15.917,89.533,17.243,88.205,18.884,88.205z"/>
	<path d="M163.071,15.021C163.048,14.969,163.068,15.072,163.071,15.021L163.071,15.021z"/>
	<path d="M167.72,51.022l3.29-35.416c-0.037-0.599-1.74-1.257-3.884-1.439c-2.198-0.195-4.003,0.233-4.055,0.854l-3.209,34.882
		c-4.833-0.522-9.901-0.782-14.954-0.782c-23.112,0-46.507,5.499-46.507,16.011v9.432c0,2.983,1.878,5.557,5.099,7.72
		c2.355,27.495,8.325,90.107,8.325,93.39c0,5.643,14.807,10.207,33.083,10.207c18.267,0,33.073-4.564,33.073-10.207
		c0-2.469,5.928-65.738,8.299-93.37c3.229-2.169,5.127-4.749,5.127-7.739v-9.432C191.407,58.208,181.255,53.459,167.72,51.022z
		 M177.076,131.217c-2.583,28.421-3.735,41.253-3.877,44.015c-1.54,1.851-11.187,5.849-28.291,5.849
		c-0.896,0-1.757-0.019-2.61-0.032c15.239-0.384,23.868-4.064,25.298-5.816c0.139-2.762,1.277-15.594,3.822-44.015
		c1.28-14.297,2.827-31.625,3.915-44.27c2.133-0.592,4.11-1.27,5.899-2.012C180.124,97.702,178.447,116.144,177.076,131.217z
		 M189.006,74.564c0,1.551-0.885,3.042-2.449,4.43c-1.26,1.134-2.953,2.202-5.088,3.173c-1.716,0.788-3.711,1.504-5.911,2.163
		c-7.942,2.377-18.747,3.849-30.649,3.849c-15.231,0-28.679-2.397-36.61-6.025c-2.001-0.925-3.608-1.929-4.847-2.984
		c-0.078-0.065-0.156-0.13-0.228-0.195c-1.546-1.381-2.424-2.867-2.424-4.41v-3.954c0.542,0.58,1.197,1.121,1.9,1.648
		c0.063,0.052,0.139,0.104,0.21,0.15c1.352,0.99,2.951,1.902,4.8,2.722c8.937,3.974,23.113,6.013,37.198,6.013
		c11.264,0,22.585-1.316,31.246-3.876c2.143-0.631,4.133-1.335,5.908-2.116c1.954-0.867,3.639-1.838,5.033-2.886
		c0.708-0.527,1.366-1.075,1.91-1.655V74.564z M187.124,69.061c-1.136,1.166-2.788,2.26-4.843,3.276
		c-1.707,0.84-3.676,1.629-5.922,2.333c-7.999,2.514-19.131,4.077-31.451,4.077c-15.809,0-29.637-2.573-37.421-6.429
		c-1.819-0.899-3.316-1.863-4.415-2.892c-0.131-0.124-0.27-0.241-0.392-0.365c-1.213-1.245-1.881-2.56-1.881-3.928
		c0-7.517,19.749-13.614,44.108-13.614c5.174,0,10.114,0.288,14.73,0.794l-0.479,5.16l-0.412,4.495
		c-0.286,0.052-0.572,0.104-0.836,0.169c-0.538,0.144-1.026,0.307-1.472,0.482c-1.483,0.605-2.402,1.419-2.402,2.318
		c0,1.856,3.86,3.361,8.636,3.361c3.713,0,6.85-0.918,8.066-2.195c0.353-0.365,0.566-0.755,0.566-1.166
		c0-0.163-0.063-0.32-0.118-0.476c-0.398-1.074-2.104-1.987-4.489-2.475l0.31-3.355l0.484-5.172
		c12.869,2.372,21.513,6.71,21.513,11.673C189.006,66.5,188.339,67.816,187.124,69.061z"/>
</g>
</svg>
