<?xml version="1.0" encoding="utf-8"?>
<!-- Generator: Adobe Illustrator 16.0.0, SVG Export Plug-In . SVG Version: 6.00 Build 0)  -->
<!DOCTYPE svg PUBLIC "-//W3C//DTD SVG 1.1//EN" "http://www.w3.org/Graphics/SVG/1.1/DTD/svg11.dtd">
<svg version="1.1" id="Layer_1" xmlns="http://www.w3.org/2000/svg" xmlns:xlink="http://www.w3.org/1999/xlink" x="0px" y="0px"
	 width="200px" height="200px" viewBox="0 0 200 200" enable-background="new 0 0 200 200" xml:space="preserve">
<g>
	<path fill-rule="evenodd" clip-rule="evenodd" d="M62.119,115.443c-0.9,5.469-3.715,25.109,1.568,28.738
		c4.973,3.41,8.212-8.787,10.226-16.961C69.219,123.375,64.939,118.797,62.119,115.443L62.119,115.443z"/>
	<path fill-rule="evenodd" clip-rule="evenodd" d="M94.435,135.941c-1.773,3.947-3.986,8.893-8.503,10.596
		c-4.518,1.705-16.463,1.023-21.622-2.008c4.624,2.035,7.674-9.482,9.602-17.307c3.979,3.258,8.256,5.996,12.205,7.02
		C88.792,134.938,91.622,135.496,94.435,135.941L94.435,135.941z"/>
	<polygon fill-rule="evenodd" clip-rule="evenodd" fill="#FFFFFF" points="92.236,142.895 91.936,143.221 91.63,143.539 
		91.313,143.846 90.985,144.143 90.648,144.424 90.298,144.695 89.938,144.949 89.568,145.195 89.186,145.424 88.791,145.635 
		88.383,145.828 87.962,146.012 87.528,146.172 87.066,146.318 86.558,146.453 86.004,146.574 85.411,146.678 84.777,146.775 
		84.111,146.857 83.413,146.924 82.685,146.98 81.934,147.02 81.16,147.047 80.366,147.059 79.556,147.059 78.73,147.043 
		77.894,147.016 77.052,146.975 76.206,146.92 75.354,146.852 74.508,146.768 73.662,146.67 72.823,146.559 71.994,146.436 
		71.179,146.297 70.379,146.145 69.597,145.982 68.834,145.803 68.098,145.613 67.39,145.406 66.712,145.189 66.226,145.016 
		66.545,144.916 67.012,144.693 67.461,144.408 67.895,144.066 68.309,143.676 68.709,143.232 69.095,142.744 69.47,142.213 
		69.831,141.646 70.183,141.041 70.523,140.402 70.857,139.729 71.179,139.033 71.494,138.311 71.798,137.566 72.093,136.801 
		72.379,136.021 72.658,135.232 72.929,134.43 73.191,133.623 73.446,132.814 73.691,132.002 73.93,131.195 74.16,130.393 
		74.383,129.602 74.598,128.822 74.806,128.061 74.847,127.91 75.147,128.131 75.558,128.43 75.972,128.725 76.389,129.018 
		76.809,129.303 77.225,129.588 77.646,129.867 78.068,130.143 78.49,130.41 78.91,130.672 79.335,130.932 79.758,131.184 
		80.183,131.434 80.608,131.672 81.032,131.906 81.458,132.133 81.882,132.357 82.308,132.57 82.733,132.775 83.158,132.977 
		83.581,133.17 84.005,133.354 84.427,133.529 84.85,133.697 85.271,133.857 85.69,134.006 86.11,134.148 86.526,134.281 
		86.944,134.404 87.358,134.516 87.771,134.621 88.047,134.688 88.323,134.75 88.601,134.814 88.878,134.877 89.157,134.938 
		89.437,135 89.717,135.061 89.997,135.119 90.278,135.18 90.562,135.236 90.843,135.293 91.128,135.35 91.412,135.406 
		91.695,135.461 91.983,135.518 92.266,135.57 92.554,135.621 92.839,135.672 93.125,135.723 93.413,135.775 93.701,135.826 
		93.987,135.873 94.276,135.924 94.563,135.973 94.851,136.018 95.14,136.063 95.427,136.111 95.716,136.152 96.004,136.197 
		96.291,136.242 96.318,136.244 96.179,136.531 95.99,136.912 95.798,137.297 95.602,137.682 95.403,138.07 95.197,138.459 
		94.985,138.848 94.771,139.234 94.549,139.621 94.321,140.004 94.085,140.383 93.845,140.76 93.596,141.133 93.34,141.498 
		93.078,141.861 92.805,142.209 92.526,142.555 92.236,142.895 	"/>
	<path fill-rule="evenodd" clip-rule="evenodd" d="M83.182,146.953c-3.173,0.689-7.825,0.369-12.315-0.369
		c4.979-2.318,7.434-12.15,7.434-12.15l10.658,3.137C88.958,137.57,85.195,146.504,83.182,146.953L83.182,146.953z"/>
	<path fill-rule="evenodd" clip-rule="evenodd" d="M60.235,141.85L42.93,190.713l-0.072,0.119l0.027,0.004l-0.047,0.135
		c0,0,0.053-0.041,0.15-0.115l6.455,1.063c0,0,4.169-1.67,5.919-1.252c0.969,0.23,1.76,0.77,2.271,1.203
		c0.31,1.578,1.429,2.365,5.595,1.488c8.246-1.736,13.667-5.857,13.667-5.857l12.582-33.84l-4.216-6.9
		c-4.932,1.416-16.026,0.662-20.947-2.229c-0.207-0.092-0.414-0.205-0.627-0.35c-0.464-0.322-0.866-0.768-1.213-1.313h-0.025h0.025
		l-0.005-0.014h-0.011C61.662,142.871,60.903,142.504,60.235,141.85L60.235,141.85z"/>
	<path fill-rule="evenodd" clip-rule="evenodd" fill="#FFFFFF" stroke="#000000" stroke-width="7.6623" d="M59.431,192.639
		c0.771,0.287-0.843,0.914,3.894-0.176c4.739-1.084,11.571-5.223,11.571-5.223l11.462-33.52c-3.963,0.176-8.971,0.371-11.7,0.371
		c-2.382,0-3.899-0.348-4.83-0.711L59.431,192.639L59.431,192.639z"/>
	<path fill-rule="evenodd" clip-rule="evenodd" d="M60.235,141.85l-0.847,2.395l9.916,8.33c0,0,1.301,1.518,6.727,1.518
		c3.134,0,9.023-0.217,13.436-0.4l0.011-0.031l-4.216-6.9c-4.932,1.416-16.026,0.662-20.947-2.229
		c-0.207-0.092-0.414-0.205-0.627-0.35c-0.464-0.322-0.866-0.768-1.213-1.313h-0.025h0.025l-0.005-0.014h-0.011
		C61.662,142.871,60.903,142.504,60.235,141.85L60.235,141.85z"/>
	<path fill-rule="evenodd" clip-rule="evenodd" d="M91.03,7.018L91.03,7.018c-2.939,0.587-5.617,1.669-7.958,3.214
		c-2.761,1.822-4.575,3.623-5.88,5.84l-0.16,0.303c-0.936,1.811-4.854,12.667-4.854,12.667l0.841,0.652c0,0,0.17,0.14,0.325,0.273
		c-0.146,0.448-0.827,2.504-1.126,3.412c-0.304-0.273-1.158-1.041-1.158-1.041l-0.227,0.666l-2.127,6.464l0.243,0.305
		c0,0,0.608,0.507,0.92,0.765c-0.143,0.438-0.773,2.383-1.089,3.354c-0.251-0.272-1.075-1.161-1.075-1.161l-0.334,0.913l-2.02,6.709
		l0.232,0.179c0,0,0.537,0.469,0.827,0.727c-0.13,0.408-0.678,2.141-0.994,3.135l-1.029-1.088l-0.208,0.834L62.18,61.06l0.406,0.521
		c0.033,0.034,0.261,0.246,0.448,0.421c-0.114,0.376-0.531,1.737-0.816,2.661c-0.109-0.131-0.838-1.006-0.838-1.006l-0.283,0.873
		c-0.004-0.001-0.042-0.01-0.042-0.01l-1.87,6.765l0.02,0.005l-0.078,0.278c0,0,0.553,0.545,0.785,0.775
		c-0.097,0.34-0.445,1.543-0.733,2.539c-0.017-0.025-0.646-1.132-0.646-1.132l-0.343,1.107l-1.932,7.623l0.182,0.196
		c0,0,0.274,0.283,0.469,0.482c-0.111,0.453-0.803,3.273-0.803,3.273s-0.157,0.683-0.158,0.688
		c-0.153-0.148-0.802,0.438-0.802,0.438l-0.221,1.156c-0.278,1.548-0.416,3.175-0.416,4.89c0,0.46,0.011,0.925,0.03,1.399
		c0.075,1.819,0.25,3.785,1.004,5.84c0.579,2.335,1.29,3.954,1.446,4.296c-0.023,0.164-0.059,0.461-0.059,0.967
		c0,1.219,0.24,3.279,1.555,5.396c2.016,3.25,16.136,20.254,27.512,23.207c11.208,2.91,25.27,3.455,29.123,3.326
		c3.629-0.125,10.394-2.602,11.311-4.141c0-0.002,0.638-1.219,0.638-1.219l0.126-0.318l4.014-11.23c0,0-2.454-0.156-2.573-0.164
		c0.292-0.838,1.21-3.48,1.396-4.021c0.552,0.059,2.573,0.275,2.573,0.275l2.26-6.328c0,0-1.957-0.09-2.686-0.123
		c0.316-0.91,1.503-4.322,1.698-4.881c0.554,0.051,2.692,0.24,2.692,0.24l2.125-5.963c0,0-1.999-0.211-2.731-0.288
		c0.304-0.867,1.509-4.334,1.707-4.899c0.565,0.056,2.778,0.284,2.778,0.284l2.293-6.417l-0.628-0.076c0,0-1.462-0.162-2.203-0.245
		c0.3-0.862,1.498-4.308,1.695-4.878c0.574,0.062,2.882,0.31,2.882,0.31l1.828-5.124c0,0-2.148-0.331-2.882-0.443
		c0.289-0.831,1.48-4.254,1.687-4.847c0.591,0.089,2.928,0.446,2.928,0.446l1.963-5.498c0,0-2.24-0.304-2.993-0.407
		c0.292-0.843,1.49-4.287,1.691-4.87c0.593,0.077,3.041,0.406,3.041,0.406l1.924-5.386l-0.701-0.162c0,0-1.612-0.222-2.363-0.324
		c0.293-0.842,1.488-4.281,1.69-4.86c0.398,0.05,0.99,0.125,0.99,0.125l1.596,0.212l0.405,0.073l0.273-0.36l3.124-8.746
		c1.604-4.487-2.687-13.777-15.89-24.413C129.641,9.18,104.614,4.302,91.03,7.018z M54.511,93.219l0.007-0.253L54.511,93.219z"/>
	<path fill-rule="evenodd" clip-rule="evenodd" fill="#FFFFFF" d="M148.335,25.314c2.992,2.926,5.267,5.683,6.899,8.177
		c0.279,3.387-0.144,7.317-1.375,12.808c-0.255,1.133-1.381,1.843-2.513,1.589c-1.134-0.254-1.845-1.381-1.59-2.512
		C151.962,35.551,151.242,31.288,148.335,25.314L148.335,25.314z"/>
	<path fill="#FFFFFF" d="M117.092,36.432c-0.252,1.638-1.786,2.76-3.425,2.506c-1.638-0.252-2.759-1.787-2.506-3.424
		c0.799-5.113,1.218-8.277,0.956-10.555c-0.217-1.896-1.034-3.322-2.706-5.217c-0.046-0.051-0.088-0.102-0.129-0.155l-5.864-6.977
		c2.03-0.417,4.382-0.737,7.093-0.885l3.364,4.003l0.032,0.033c2.548,2.891,3.809,5.191,4.19,8.515
		C118.435,27.221,117.977,30.776,117.092,36.432L117.092,36.432z"/>
	<path fill="#FFFFFF" d="M128.227,39.648c-0.285,1.47-1.709,2.427-3.178,2.141c-1.466-0.287-2.426-1.71-2.139-3.178
		c0.538-2.708-0.114,0.604,0.31-1.495c1.31-6.513,2.425-12.034-0.285-15.538c-0.032-0.042-0.062-0.082-0.089-0.121l-5.947-7.934
		c-0.413-0.549-0.582-1.204-0.531-1.837c1.024,0.037,2.087,0.093,3.19,0.176c1.043,0.08,2.099,0.222,3.161,0.421l4.447,5.927
		l0.046,0.062c4.214,5.452,2.877,12.081,1.304,19.903C128.289,39.295,128.965,35.943,128.227,39.648L128.227,39.648z"/>
	<path fill="#FFFFFF" d="M137.758,41.91c-0.336,1.285-1.651,2.052-2.937,1.715c-1.284-0.339-2.051-1.654-1.714-2.937
		c1.691-6.358,2.173-10.359,1.399-13.857c-0.772-3.498-2.889-6.834-6.368-11.767c-0.313-0.447-0.454-0.963-0.437-1.47
		c2.45,0.817,4.919,1.876,7.364,3.108c2.086,3.263,3.45,6.027,4.13,9.095C140.159,30.154,139.653,34.789,137.758,41.91
		L137.758,41.91z"/>
	<path fill="#FFFFFF" d="M146.459,44.194c-0.293,1.295-1.578,2.109-2.872,1.817c-1.296-0.29-2.108-1.576-1.817-2.87
		c1.433-6.383,1.651-10.647,0.863-14.47c-0.659-3.198-2.075-6.266-4.111-10.112c2.584,1.471,5.116,3.098,7.551,4.793
		c0.535,1.436,0.959,2.863,1.268,4.356C148.271,32.229,148.052,37.093,146.459,44.194L146.459,44.194z"/>
	<path fill-rule="evenodd" clip-rule="evenodd" d="M72.178,29.042c0,0-14.757,43.238-17.034,58.515
		c-2.277,15.277,22.284,4.544,22.284,4.544l4.541-38.185l-1.238-24.874H72.178z"/>
	<path fill-rule="evenodd" clip-rule="evenodd" d="M155.288,53.295l-24.083,67.832l-6.303,2.967l1.031-18.145
		c0,0,12.615-48.06,13.739-49.325c1.123-1.264,16.658-5.844,16.658-5.844"/>
	<path fill-rule="evenodd" clip-rule="evenodd" fill="#FFFFFF" d="M130.344,125.65l-2.774-0.232
		c-2.695-0.238-5.461-0.508-8.265-0.811l1.856-5.188c3.688,0.391,7.373,0.754,11.038,1.127L130.344,125.65L130.344,125.65z
		 M108.84,123.346c-7.534-1-15.057-2.205-21.956-3.566c-0.059-0.021-0.12-0.043-0.178-0.064
		c-4.546-1.803-14.658-7.338-23.947-13.428l2.34-5.956c9.223,6.17,19.586,11.891,24.086,13.674c0.043,0.02,0.09,0.041,0.132,0.059
		c1.481,0.572,3.644,1.127,6.274,1.66c4.971,1.012,10.02,1.799,15.092,2.469L108.84,123.346L108.84,123.346z M54.108,100.213
		c-0.741-0.564-1.455-1.121-2.142-1.667v-0.008c-0.022-0.487-0.03-0.974-0.03-1.457l0.001-0.104v-0.03v-0.076v-0.022
		c0.004-0.261,0.011-0.521,0.021-0.779v-0.037c0.004-0.114,0.008-0.229,0.014-0.342l0.006-0.111l0.001-0.035v-0.007l0.006-0.102
		l0.005-0.086l0.001-0.014l0.01-0.128l0.02-0.295l0.008-0.121l0.004-0.027l0.002-0.027l0.007-0.097l0.003-0.011l0.012-0.142
		l0.004-0.063l0.007-0.077l0.011-0.097l0.005-0.055l0.005-0.042l0.009-0.096l0.001-0.012c0.009-0.091,0.02-0.183,0.03-0.272
		l0.011-0.095l0.002-0.008c0.017-0.153,0.038-0.305,0.06-0.453l0.013-0.092l0.002-0.022l0.01-0.066l0.014-0.093l0.003-0.015
		l0.04-0.248l0.014-0.089l0.001-0.007l0.013-0.078c0.016-0.088,0.03-0.174,0.047-0.258l0.006-0.04l0.006-0.024l0.005-0.019
		l0.002-0.007l0.003-0.03c0.032-0.16,0.062-0.321,0.095-0.485l0.005-0.021l0.005-0.024l0.004-0.019l0.004-0.024v-0.004
		c0.037-0.178,0.074-0.357,0.111-0.54l0,0l0.038-0.187c0.108,0.102,0.22,0.205,0.332,0.31c1.06,0.974,2.245,1.976,3.522,2.991
		L54.108,100.213L54.108,100.213z M134.146,115.199l-2.45-0.225c-2.767-0.258-5.681-0.547-8.635-0.863l2.135-5.971
		c3.888,0.404,7.686,0.756,11.13,1.057L134.146,115.199L134.146,115.199z M112.59,112.863c-8.911-1.182-17.02-2.627-21.223-4.293
		c-4.686-1.861-15.159-7.096-24.396-12.999l2.333-5.942c9.103,5.97,19.86,11.374,24.543,13.229
		c3.958,1.574,12.009,2.951,20.862,4.082L112.59,112.863L112.59,112.863z M58.326,89.48c-1.521-1.208-2.915-2.422-4.133-3.617
		c-0.109-0.108-0.218-0.217-0.326-0.325l0.004-0.012c0.575-2.302,1.25-4.845,2.004-7.556l0.006-0.023
		c0.039,0.058,0.073,0.117,0.11,0.177h0.002c0.601,1.046,1.577,2.206,2.828,3.433c0.585,0.575,1.231,1.166,1.926,1.763L58.326,89.48
		L58.326,89.48z M60.111,63.542l0.002-0.011l0.127-0.409l0.002-0.008l0.034-0.105c0.294-0.962,0.592-1.928,0.895-2.895l0.004-0.012
		c0.357-1.143,0.718-2.293,1.08-3.443h0.003c0.146,0.122,0.283,0.259,0.412,0.41l0.002,0.001l0.042,0.053l0.006-0.004
		c0.787,0.984,1.87,2.042,3.17,3.139c0.905,0.764,1.913,1.545,3,2.336l-2.361,6.008c-1.794-1.249-3.454-2.496-4.911-3.727
		C61.087,64.427,60.585,63.984,60.111,63.542L60.111,63.542z M77.689,68.288c8.007,4.71,16.73,8.872,21.112,10.611
		c4.455,1.77,14.072,3.455,24.204,4.854l-2.117,5.919c-10.21-1.451-19.872-3.205-24.565-5.068
		c-4.367-1.73-12.879-5.781-20.94-10.442L77.689,68.288L77.689,68.288z M133.442,85.092c4.007,0.478,7.839,0.897,11.192,1.249
		l-2.17,5.969l-1.348-0.146c-3.041-0.327-6.366-0.703-9.804-1.121L133.442,85.092L133.442,85.092z M146.26,81.872l-1.786-0.267
		c-2.864-0.43-6.007-0.916-9.267-1.443l2.115-5.912c4.001,0.64,7.807,1.21,11.092,1.694L146.26,81.872L146.26,81.872z
		 M124.916,78.417c-10.229-1.825-20.028-3.898-24.806-5.794c-4.125-1.635-12.322-5.272-20.348-9.613l2.301-5.852
		c7.993,4.389,16.387,8.118,20.525,9.758c4.559,1.812,14.29,3.829,24.435,5.613L124.916,78.417L124.916,78.417z M70.795,57.743
		c-0.434-0.277-0.864-0.561-1.282-0.841c-1.995-1.338-3.853-2.712-5.487-4.101c-0.143-0.119-0.282-0.24-0.422-0.362
		c0.443-1.375,0.887-2.738,1.332-4.092l0.035-0.105l0.032-0.101l0.034-0.105c0.251-0.762,0.5-1.518,0.751-2.268
		c0.684,0.776,1.533,1.586,2.511,2.417c1.368,1.159,3.012,2.371,4.835,3.597L70.795,57.743L70.795,57.743z M154.771,54.548
		l1.354,0.188l-2.16,5.942l-0.922-0.121c-3.129-0.41-6.639-0.888-10.315-1.418l2.126-5.943
		C148.405,53.703,151.782,54.158,154.771,54.548L154.771,54.548z M132.375,57.565c-11.024-1.775-21.737-3.856-26.729-5.84
		c-3.944-1.564-10.746-5.17-17.739-9.443l2.32-5.905c7.041,4.368,13.989,8.092,17.897,9.644c4.74,1.883,15.416,3.901,26.368,5.627
		L132.375,57.565L132.375,57.565z M79.105,36.59c-0.695-0.478-1.38-0.958-2.052-1.434c-1.889-1.341-3.713-2.711-5.413-4.081
		c-0.208-0.168-0.413-0.333-0.616-0.5l0.005-0.014l0.068-0.186l0.005-0.018l0.041-0.107l0.077-0.214l0.039-0.107l0.04-0.107l0,0
		l0.076-0.212l0.039-0.107l0.021-0.056l0.018-0.051l0.014-0.031l0.215-0.593l0.04-0.104l0.189-0.509l0.037-0.1l0.036-0.101
		l0.148-0.402l0.037-0.098l0.063-0.174l0.024-0.063l0.055-0.14l0.005-0.015l0.035-0.098l0.038-0.097l0.006-0.018
		c0.228-0.606,0.45-1.189,0.665-1.751l0.033-0.091l0.035-0.088l0.035-0.087l0.199-0.521l0.001-0.002
		c0.754,0.673,1.566,1.354,2.427,2.046c1.51,1.216,3.238,2.51,5.108,3.842c0.187,0.13,0.375,0.263,0.564,0.397L79.105,36.59
		L79.105,36.59z M152.27,65.343l-2.163,5.952l-0.93-0.122c-3.103-0.406-6.592-0.879-10.251-1.406l2.127-5.941
		C145.14,64.403,148.989,64.918,152.27,65.343L152.27,65.343z M128.57,68.195c-11.122-1.783-21.97-3.884-27.004-5.88
		c-3.958-1.571-10.786-5.196-17.801-9.483l2.319-5.905c7.063,4.384,14.04,8.126,17.959,9.682c4.78,1.896,15.598,3.936,26.645,5.672
		L128.57,68.195L128.57,68.195z M74.962,47.137c-0.673-0.466-1.337-0.929-1.99-1.393c-1.887-1.341-3.712-2.712-5.411-4.08
		l-0.314-0.253c0.75-2.21,1.482-4.344,2.191-6.372c0.709,0.629,1.468,1.266,2.269,1.911c1.51,1.214,3.237,2.51,5.11,3.837l0.5,0.355
		L74.962,47.137L74.962,47.137z M140.402,97.981l-2.179,5.994l0.049,0.002c-3.431-0.352-7.232-0.762-11.148-1.225l2.134-5.963
		C133.205,97.242,137.014,97.642,140.402,97.981L140.402,97.981z M116.687,101.414c-9.848-1.372-19.032-3.024-23.569-4.826
		c-4.447-1.764-13.488-6.47-21.918-11.779l2.329-5.928c8.373,5.384,17.639,10.244,22.067,12.001
		c4.281,1.699,13.423,3.285,23.213,4.609L116.687,101.414L116.687,101.414z M62.488,78.885c-1.883-1.398-3.599-2.782-5.069-4.11
		c-0.173-0.159-0.342-0.314-0.51-0.469c0.647-2.262,1.34-4.609,2.063-7.006c0.722,0.915,1.698,1.918,2.872,2.976
		c0.915,0.828,1.935,1.677,3.031,2.539L62.488,78.885L62.488,78.885z"/>
</g>
</svg>
