<?xml version="1.0" encoding="utf-8"?>
<!-- Generator: Adobe Illustrator 16.0.0, SVG Export Plug-In . SVG Version: 6.00 Build 0)  -->
<!DOCTYPE svg PUBLIC "-//W3C//DTD SVG 1.1//EN" "http://www.w3.org/Graphics/SVG/1.1/DTD/svg11.dtd">
<svg version="1.1" id="Layer_1" xmlns="http://www.w3.org/2000/svg" xmlns:xlink="http://www.w3.org/1999/xlink" x="0px" y="0px"
	 width="200px" height="200px" viewBox="0 0 200 200" enable-background="new 0 0 200 200" xml:space="preserve">
<path d="M142.656,120.237v-14.78c0-4.064-2.723-9.222-6.081-11.517l-7.736-5.293c2.299-5.582,3.573-12.338,3.4-19.808
	c-0.484-21.443-12.461-40.411-26.749-42.371c-1.688-0.233-3.332-0.217-4.913,0.025c-2.622,0.403-12.681,2.29-14.177,2.494
	c-0.961,0.13-1.893,0.375-2.811,0.668C79.875,16.215,70.922,5.808,60.657,4.462c-1.563-0.206-3.089-0.19-4.548,0.025
	c-2.431,0.354-11.742,2.025-13.129,2.203C31.878,8.132,23.738,21.027,24.141,37.865c0.24,10.05,3.494,19.458,8.448,26.362
	c0,0-2.709,0.586-6.058,1.307c-3.349,0.723-6.058,4.607-6.058,8.672v57.011c0,4.066,2.598,9.395,5.8,11.902l48.133,37.678
	c3.207,2.506,9.002,3.742,12.95,2.762l21.682-5.381c-0.775-0.661-1.398-1.166-1.789-1.433c-7.11-4.871-11.356-13.824-11.356-23.956
	c0-17.103,11.931-33.096,26.591-35.659c1.368-0.238,2.751-0.361,4.107-0.361c1.022,0,2.05,0.071,3.049,0.207
	c0.832,0.116,1.844,0.329,2.993,0.614c-0.436-0.085-0.831-0.156-1.181-0.2c-1.99-0.275-4.077-0.24-6.227,0.133
	c-13.479,2.358-24.414,17.231-24.414,33.228c0,9.649,3.98,17.483,10.097,21.672c0.94,0.645,2.722,2.17,4.863,4.082
	c5.184,4.627,12.529,11.551,15.574,14.026c5.09,4.14,11.639,6.021,18.787,4.773c13.107-2.294,24.204-14.418,27.989-29.141
	c0.906-3.509,1.401-7.16,1.401-10.867c0-16.004-8.397-26.604-20.933-30.104C157.102,124.778,149.625,122.306,142.656,120.237z
	 M84.712,34.625c1.304-0.46,2.655-0.722,4.057-0.722c0.576,0,1.161,0.042,1.757,0.123c11.736,1.61,22.005,18.713,22.43,37.347
	c0.046,2.153-0.038,4.243-0.243,6.26c-1.4,13.924-8.539,24.104-17.642,24.104c-0.574,0-1.163-0.039-1.75-0.124
	c-10.179-1.392-19.243-14.446-21.751-30.04c-0.383-2.385-0.627-4.828-0.681-7.301c-0.067-2.94,0.129-5.759,0.522-8.428
	C72.993,45.131,78.054,36.997,84.712,34.625z M28.618,37.865c-0.36-15.045,6.916-26.832,16.556-26.832
	c0.534,0,1.074,0.035,1.619,0.109c10.868,1.42,20.382,16.531,20.774,32.994c0.111,4.713-0.525,9.104-1.749,12.913
	c-2.682,8.357-8.188,13.917-14.811,13.917c-0.534,0-1.074-0.037-1.624-0.106c-4.398-0.577-8.566-3.422-12.002-7.668
	C32.327,56.952,28.851,47.659,28.618,37.865z M74.519,170.775l-43.704-32.871c-2.168-1.63-3.925-5.148-3.925-7.862V80.214
	c0-2.71,1.757-3.587,3.925-1.957l43.704,32.874c2.166,1.628,3.92,5.146,3.92,7.858v49.829
	C78.439,171.527,76.684,172.407,74.519,170.775z M148.768,187.449c-1,0.176-1.988,0.262-2.952,0.262
	c-7.846,0-13.97-5.848-16.187-14.646c-0.586-2.317-0.913-4.826-0.913-7.497c0-11.415,5.834-22.521,13.94-28.308
	c2.739-1.952,5.732-3.305,8.851-3.847c0.997-0.176,1.985-0.265,2.949-0.265c9.909,0,17.1,9.315,17.1,22.146
	C171.556,170.566,161.121,185.29,148.768,187.449z"/>
</svg>
