<?xml version="1.0" encoding="utf-8"?>
<!-- Generator: Adobe Illustrator 16.0.0, SVG Export Plug-In . SVG Version: 6.00 Build 0)  -->
<!DOCTYPE svg PUBLIC "-//W3C//DTD SVG 1.1//EN" "http://www.w3.org/Graphics/SVG/1.1/DTD/svg11.dtd">
<svg version="1.1" id="Layer_1" xmlns="http://www.w3.org/2000/svg" xmlns:xlink="http://www.w3.org/1999/xlink" x="0px" y="0px"
	 width="200px" height="200px" viewBox="0 0 200 200" enable-background="new 0 0 200 200" xml:space="preserve">
<g id="MEssBo.tif">
	<g>
		<path fill-rule="evenodd" clip-rule="evenodd" d="M166.634,10.389c1.054,0,2.106,0,3.16,0C178.76,13.06,183.6,25.047,186.451,34.8
			c3.223,11.02,4.754,23.151,5.457,34.754c0,4.978,0,9.957,0,14.935c-1.602,19.409-4.478,42.024-14.359,53.708
			c-1.971,2.332-5.277,4.895-8.617,5.172c-9.73,0.801-14.579-11.439-17.232-18.67c-3.17-8.641-5.26-17.842-6.319-27.861
			c8.353-1.119,15.289-1.87,23.552-2.87c2.367-0.29,5.747-0.259,7.755-1.151c7.697-3.417,7.096-28.58,0-31.88
			c-1.89-0.879-5.107-0.792-7.755-1.148c-7.973-1.074-15.825-2.013-23.552-3.161C148.259,38.476,151.733,16.163,166.634,10.389z"/>
		<path fill-rule="evenodd" clip-rule="evenodd" d="M68.119,189.611c-1.915,0-3.83,0-5.744,0c-5.091-0.73-10.077-1.256-15.222-2.012
			c-7.647-1.127-16.147-0.775-19.243-6.605c-3.2-6.023-1.396-16.719-0.288-25.852c2.217-18.248,7.041-39.834,10.34-55.144
			c-3.855-0.864-8.267-1.481-12.636-2.298c-4.038-0.755-9.374-1.029-12.064-2.583c-4.219-2.439-3.686-8.402-5.17-13.788
			c0-2.966,0-5.935,0-8.904c0.804-3.386,1.393-11.362,5.17-13.497c1.718-0.973,5.298-1.407,8.329-2.011
			c26.606-5.302,54.73-8.823,83.292-11.203c6.813-0.566,13.575-0.471,19.531-1.437c11.75-1.902,19.22-8.256,24.988-16.369
			c-10.535,26.09-10.269,72.965,0.287,98.8c-6.317-10.986-17.509-17.141-33.316-17.807c-11.535-0.486-24.075-2.102-35.327-2.873
			c-1.534,16.609-2.593,37.832-2.012,56.582c0.174,5.609,1.742,14.396,0.575,18.67C78.323,185.986,72.548,188.662,68.119,189.611z
			 M73.863,104.881c-0.334,0.049-0.312,0.453-0.287,0.861c-1.995,16.561-2.583,36.197-2.583,54.57
			c0,8.086,1.247,17.738-0.288,22.979c1.378-0.92,2.822-1.773,3.733-3.158c-1.038-25.119-0.697-51.652,1.724-74.963
			C75.174,105.293,74.552,105.055,73.863,104.881z"/>
		<path fill-rule="evenodd" clip-rule="evenodd" d="M173.813,63.81c6.845-1.73,7.098,25.919,0.862,26.422
			c-3.4,0.276-4.938-6.792-5.17-11.774C169.227,72.505,170.567,64.631,173.813,63.81z"/>
	</g>
</g>
</svg>
