<?xml version="1.0" encoding="utf-8"?>
<!-- Generator: Adobe Illustrator 16.0.0, SVG Export Plug-In . SVG Version: 6.00 Build 0)  -->
<!DOCTYPE svg PUBLIC "-//W3C//DTD SVG 1.1//EN" "http://www.w3.org/Graphics/SVG/1.1/DTD/svg11.dtd">
<svg version="1.1" id="Layer_1" xmlns="http://www.w3.org/2000/svg" xmlns:xlink="http://www.w3.org/1999/xlink" x="0px" y="0px"
	 width="200px" height="200px" viewBox="0 0 200 200" enable-background="new 0 0 200 200" xml:space="preserve">
<g>
	<g>
		<g>
			<g enable-background="new    ">
				<g>
					<path d="M68.293,159.182l-9.118-4.961c1.105-0.209,2.026-1.152,2.335-2.295l9.118,4.961
						C70.319,158.029,69.398,158.971,68.293,159.182z"/>
				</g>
				<g>
					<path d="M61.51,151.926c5.484-5.947,8.961-14.035,8.977-22.492c3.04,1.654,6.079,3.307,9.118,4.961
						c-0.016,8.455-3.493,16.543-8.977,22.492C67.893,155.398,64.246,153.414,61.51,151.926z"/>
				</g>
				<g>
					<path fill="#FFFFFF" d="M61.622,151.107c0.001-0.902-0.395-1.646-1.011-2.064c2.685,1.461,5.369,2.92,8.053,4.381l1.065,0.578
						c0.616,0.42,1.012,1.162,1.011,2.064c0,0.279-0.04,0.555-0.112,0.82l-9.118-4.961C61.582,151.66,61.621,151.387,61.622,151.107
						z"/>
				</g>
				<g>
					<path d="M44.29,161.34c5.523-0.777,10.654-3.355,14.885-7.119c1.521,0.828,3.041,1.656,4.562,2.482
						c1.164,0.635,2.328,1.268,3.493,1.9l1.064,0.578c-4.231,3.762-9.363,6.342-14.886,7.117c-5.129,0.721-9.914-0.207-13.95-2.402
						l-9.118-4.961C34.375,161.133,39.16,162.061,44.29,161.34z"/>
				</g>
				<g>
					<path fill="#FFFFFF" d="M59.053,154.242c0.041-0.006,0.082-0.014,0.122-0.021l9.118,4.961
						c-0.041,0.008-0.081,0.016-0.122,0.021c-0.504,0.07-0.974-0.021-1.371-0.236l-9.118-4.961
						C58.079,154.223,58.549,154.313,59.053,154.242z"/>
				</g>
				<g>
					<path d="M70.487,129.434c0.019-10.029-4.835-18.172-12.149-22.152l9.118,4.961c7.313,3.979,12.167,12.121,12.149,22.152
						C76.565,132.74,73.526,131.088,70.487,129.434z"/>
				</g>
				<g>
					<path fill="#FFFFFF" d="M67.819,129.809c0.013-6.73-2.419-12.512-6.391-16.494c2.685,1.459,5.369,2.92,8.053,4.381l1.065,0.578
						c3.972,3.984,6.404,9.766,6.391,16.496c-0.013,7.148-2.779,14-7.208,19.232l-9.118-4.959
						C65.04,143.809,67.806,136.957,67.819,129.809z"/>
				</g>
				<g>
					<path d="M60.611,149.043c-0.057-0.039-0.116-0.074-0.177-0.107l9.118,4.959c0.061,0.033,0.12,0.07,0.177,0.107
						C66.994,152.516,63.27,150.664,60.611,149.043z"/>
				</g>
				<g>
					<path d="M60.434,148.936c3.039,1.652,6.079,3.307,9.118,4.959c-0.396-0.215-0.865-0.307-1.37-0.234l-9.118-4.961
						C59.568,148.629,60.038,148.719,60.434,148.936z"/>
				</g>
				<g>
					<path d="M66.801,158.967c-3.04-1.654-6.079-3.307-9.118-4.961c-0.437-0.236-0.784-0.625-0.989-1.113
						c-0.133-0.316-0.207-0.676-0.206-1.064c0.003-1.531,1.158-2.93,2.577-3.129l9.118,4.961c-1.418,0.199-2.574,1.598-2.576,3.129
						c-0.001,0.387,0.073,0.746,0.206,1.063C66.017,158.34,66.364,158.729,66.801,158.967z"/>
				</g>
				<g>
					<path d="M68.182,153.66c0.583-0.082,1.118,0.051,1.547,0.342c0.616,0.42,1.012,1.162,1.011,2.064
						c0,0.279-0.04,0.555-0.111,0.82c-0.31,1.143-1.23,2.084-2.335,2.295c-0.04,0.008-0.081,0.016-0.122,0.021
						c-1.058,0.148-1.968-0.418-2.36-1.352c-0.133-0.316-0.207-0.676-0.206-1.063C65.608,155.258,66.764,153.859,68.182,153.66z"/>
				</g>
				<g>
					<path fill="#FFFFFF" d="M44.295,158.459c4.545-0.639,8.795-2.637,12.398-5.566l9.118,4.959
						c-3.604,2.932-7.854,4.93-12.399,5.568c-4.548,0.639-8.796-0.164-12.392-2.084l-9.118-4.961
						C35.499,158.295,39.746,159.1,44.295,158.459z"/>
				</g>
				<g>
					<path d="M44.307,151.896c9.596-1.348,17.414-10.875,17.433-21.232c3.04,1.654,6.079,3.309,9.118,4.963l0,0
						c-0.021,10.357-7.838,19.881-17.433,21.23C50.689,155.369,47.042,153.385,44.307,151.896z"/>
				</g>
				<g>
					<path d="M68.26,120.094l-9.118-4.961c0.997-0.141,1.857-0.869,2.286-1.818l9.118,4.959
						C70.118,119.223,69.257,119.953,68.26,120.094z"/>
				</g>
				<g>
					<path d="M57.771,114.896c0.397,0.217,0.867,0.307,1.371,0.236l9.118,4.961c-0.504,0.07-0.975-0.021-1.371-0.236
						C64.154,118.369,60.506,116.385,57.771,114.896z"/>
				</g>
				<g>
					<path fill="#FFFFFF" d="M61.719,111.996c0.002-0.99-0.471-1.789-1.188-2.18l9.118,4.961c0.717,0.391,1.19,1.188,1.188,2.18
						c-0.001,0.459-0.106,0.908-0.291,1.316l-9.118-4.959C61.613,112.904,61.718,112.455,61.719,111.996z"/>
				</g>
				<g>
					<path d="M60.531,109.816c3.04,1.654,6.079,3.307,9.118,4.961c-0.397-0.217-0.87-0.307-1.378-0.236l-9.118-4.959
						C59.661,109.51,60.134,109.602,60.531,109.816z"/>
				</g>
				<g>
					<path d="M66.889,119.857l-9.118-4.961c-0.719-0.391-1.196-1.191-1.194-2.178c0.001-0.92,0.416-1.789,1.051-2.383
						c0.428-0.398,0.956-0.674,1.525-0.754l9.118,4.959c-0.569,0.08-1.098,0.355-1.525,0.754c-0.635,0.594-1.049,1.463-1.051,2.385
						C65.693,118.666,66.17,119.465,66.889,119.857z"/>
				</g>
				<g>
					<path d="M68.271,114.541c1.426-0.199,2.569,0.875,2.566,2.416c-0.001,0.459-0.106,0.908-0.291,1.316
						c-0.429,0.949-1.289,1.68-2.286,1.82c-1.417,0.199-2.568-0.885-2.566-2.414c0.002-0.922,0.416-1.791,1.051-2.385
						C67.173,114.896,67.701,114.621,68.271,114.541z"/>
				</g>
				<g>
					<path d="M35.015,150.297c2.688,1.463,5.876,2.08,9.292,1.6l9.118,4.961c-3.417,0.48-6.604-0.139-9.292-1.602
						C41.397,153.768,37.75,151.785,35.015,150.297z"/>
				</g>
				<g>
					<path fill="#FFFFFF" d="M46.992,149.98c-3.04-1.652-6.079-3.307-9.118-4.959c1.864,1.014,4.075,1.441,6.444,1.109l9.118,4.959
						C51.066,151.424,48.856,150.994,46.992,149.98z"/>
				</g>
				<g>
					<path d="M61.74,130.664c0.013-6.678-3.218-12.096-8.085-14.744l9.118,4.959c4.868,2.648,8.098,8.068,8.085,14.744
						c0,0.002,0,0.002,0,0.004C67.818,133.973,64.78,132.318,61.74,130.664z"/>
				</g>
				<g>
					<path fill="#FFFFFF" d="M50.797,121.197l9.118,4.959c3.375,1.836,5.616,5.592,5.607,10.217
						c-0.013,7.186-5.439,13.783-12.087,14.717l-9.118-4.959c6.648-0.936,12.074-7.531,12.087-14.717
						C56.414,126.789,54.172,123.033,50.797,121.197z"/>
				</g>
				<g>
					<path fill="#FFFFFF" d="M57.627,110.336c-0.236-0.143-0.476-0.279-0.718-0.412l9.118,4.961c0.242,0.131,0.482,0.268,0.718,0.41
						C64.01,113.807,60.331,111.881,57.627,110.336z"/>
				</g>
				<g>
					<path fill="#FFFFFF" d="M38.535,163.365l-9.118-4.961c0.04-0.004,0.08-0.008,0.12-0.014c1.059-0.148,1.971-0.971,2.366-2.016
						l9.118,4.961c-0.396,1.045-1.308,1.867-2.367,2.016C38.614,163.357,38.574,163.361,38.535,163.365z"/>
				</g>
				<g>
					<path d="M32.113,155.254c0.001-0.984-0.474-1.779-1.19-2.168l9.118,4.959c0.716,0.391,1.191,1.186,1.189,2.17
						c0,0.387-0.076,0.766-0.209,1.121l-9.118-4.961C32.037,156.021,32.112,155.643,32.113,155.254z"/>
				</g>
				<g>
					<path fill="#FFFFFF" d="M30.34,158.938c-0.313-0.17-0.621-0.348-0.924-0.533c2.113,1.15,4.227,2.299,6.34,3.449
						c0.57,0.311,1.141,0.621,1.711,0.932l1.066,0.58c0.303,0.184,0.611,0.361,0.923,0.531
						C36.723,162.408,33.076,160.424,30.34,158.938z"/>
				</g>
				<g>
					<path d="M28.165,158.154c0.365,0.199,0.793,0.291,1.251,0.25l9.118,4.961c-0.459,0.041-0.886-0.053-1.251-0.252
						C34.548,161.627,30.9,159.643,28.165,158.154z"/>
				</g>
				<g>
					<path d="M37.283,163.113l-9.118-4.959c-0.518-0.281-0.91-0.775-1.088-1.398c-0.069-0.242-0.107-0.502-0.106-0.779
						c0.002-0.902,0.405-1.76,1.026-2.352c0.432-0.41,0.969-0.695,1.55-0.777l9.118,4.961c-0.582,0.082-1.119,0.365-1.55,0.777
						c-0.622,0.592-1.025,1.447-1.026,2.352c0,0.275,0.037,0.535,0.106,0.779C36.373,162.338,36.765,162.832,37.283,163.113z"/>
				</g>
				<g>
					<path d="M38.665,157.809c1.417-0.199,2.568,0.875,2.565,2.406c0,0.387-0.076,0.766-0.209,1.121
						c-0.396,1.045-1.308,1.867-2.367,2.016c-0.04,0.006-0.08,0.01-0.12,0.014c-1.109,0.1-2.036-0.588-2.34-1.648
						c-0.07-0.244-0.107-0.504-0.106-0.779c0.001-0.904,0.405-1.76,1.026-2.352C37.546,158.174,38.083,157.891,38.665,157.809z"/>
				</g>
				<g>
					<path fill="#FFFFFF" d="M65.812,157.852c0.392,0.934,1.302,1.5,2.36,1.352c0.041-0.006,0.081-0.014,0.122-0.021
						c-4.231,3.762-9.363,6.342-14.886,7.117c-5.526,0.777-10.652-0.361-14.873-2.934c0.04-0.004,0.08-0.008,0.12-0.014
						c1.059-0.148,1.971-0.971,2.367-2.016c3.596,1.92,7.843,2.723,12.392,2.084C57.958,162.781,62.208,160.783,65.812,157.852z"/>
				</g>
				<g>
					<path d="M30.923,153.084c3.04,1.654,6.079,3.307,9.118,4.961c-0.398-0.217-0.87-0.307-1.376-0.236l-9.118-4.961
						C30.053,152.777,30.525,152.869,30.923,153.084z"/>
				</g>
				<g>
					<path d="M44.367,120.088c2.363-0.332,4.569,0.096,6.43,1.109l9.118,4.959c-1.861-1.012-4.067-1.439-6.43-1.107
						C50.749,123.561,47.102,121.576,44.367,120.088z"/>
				</g>
				<g>
					<path fill="#FFFFFF" d="M53.654,115.92l9.118,4.959c-2.684-1.459-5.866-2.076-9.276-1.598l-9.118-4.961
						C47.788,113.842,50.97,114.459,53.654,115.92z"/>
				</g>
				<g>
					<path d="M37.875,145.021c-3.374-1.836-5.612-5.588-5.603-10.215c3.039,1.652,6.078,3.307,9.118,4.959
						c-0.009,4.629,2.23,8.381,5.603,10.215C44.257,148.494,40.61,146.51,37.875,145.021z"/>
				</g>
				<g>
					<path d="M32.271,134.807c0.013-7.178,5.439-13.783,12.095-14.719l9.118,4.961c-6.657,0.936-12.082,7.541-12.096,14.717
						C38.35,138.113,35.311,136.459,32.271,134.807z"/>
				</g>
				<g>
					<path d="M53.485,125.049c6.648-0.936,12.052,4.148,12.038,11.324c-0.013,7.186-5.439,13.783-12.087,14.717
						c-6.657,0.936-12.06-4.139-12.047-11.324C41.403,132.59,46.828,125.984,53.485,125.049z"/>
				</g>
				<g>
					<path fill="#FFFFFF" d="M44.134,155.258l-9.118-4.961c-4.869-2.648-8.1-8.066-8.087-14.74
						c0.02-10.357,7.845-19.885,17.449-21.236l9.118,4.961c-9.604,1.35-17.43,10.877-17.449,21.236
						C36.034,147.191,39.265,152.609,44.134,155.258z"/>
				</g>
				<g>
					<path d="M44.39,107.768c4.602-0.646,8.896,0.186,12.519,2.156l9.118,4.959c-3.623-1.969-7.917-2.803-12.519-2.156
						c-4.905,0.689-9.466,2.963-13.241,6.277l-9.118-4.961C34.924,110.729,39.485,108.457,44.39,107.768z"/>
				</g>
				<g>
					<path fill="#FFFFFF" d="M44.395,104.879c5.125-0.721,9.906,0.207,13.94,2.402l9.118,4.959c-4.034-2.193-8.815-3.121-13.94-2.4
						C50.778,108.352,47.131,106.367,44.395,104.879z"/>
				</g>
				<g>
					<path fill="#FFFFFF" d="M53.496,119.281c9.596-1.35,17.382,5.984,17.362,16.342c-0.02,10.359-7.837,19.885-17.433,21.234
						c-9.604,1.35-17.398-5.982-17.378-16.34C36.066,130.158,43.892,120.631,53.496,119.281z M53.436,151.09
						c6.648-0.934,12.074-7.531,12.087-14.717c0.014-7.176-5.39-12.26-12.038-11.324c-6.657,0.936-12.082,7.541-12.096,14.717
						C41.376,146.951,46.779,152.025,53.436,151.09"/>
				</g>
				<g>
					<path d="M32.21,116.145c0.002-0.93-0.417-1.689-1.062-2.102l9.118,4.961c0.644,0.412,1.063,1.17,1.062,2.1
						c-0.003,1.531-1.159,2.938-2.577,3.137c-3.039-1.652-6.078-3.307-9.117-4.959c3.039,1.652,6.078,3.307,9.117,4.959
						c-0.504,0.07-0.974-0.02-1.37-0.236l-9.118-4.959c0.396,0.215,0.867,0.307,1.371,0.236
						C31.051,119.082,32.208,117.674,32.21,116.145z"/>
				</g>
				<g>
					<path fill="#FFFFFF" d="M31.148,114.043c-0.042-0.027-0.086-0.053-0.13-0.076l9.118,4.959c0.044,0.025,0.088,0.051,0.13,0.078
						C37.531,117.516,33.83,115.627,31.148,114.043z"/>
				</g>
				<g>
					<path fill="#FFFFFF" d="M46.988,88.471c0.002-0.987-0.474-1.789-1.192-2.18l9.118,4.96c0.719,0.391,1.194,1.193,1.192,2.181
						c-0.003,1.539-1.151,2.937-2.568,3.136l-9.118-4.96C45.838,91.408,46.985,90.011,46.988,88.471z"/>
				</g>
				<g>
					<path d="M45.796,86.291l9.118,4.96c-0.395-0.215-0.863-0.306-1.366-0.235l-9.118-4.96
						C44.933,85.985,45.401,86.076,45.796,86.291z"/>
				</g>
				<g>
					<path fill="#FFFFFF" d="M52.315,55.612c3.04,1.653,6.079,3.307,9.118,4.96c4.104,2.233,6.83,6.801,6.819,12.429
						c-0.016,8.742-6.614,16.774-14.704,17.912l-9.118-4.96c8.09-1.137,14.688-9.17,14.704-17.912
						C59.145,62.414,56.42,57.845,52.315,55.612z"/>
				</g>
				<g>
					<path d="M64.295,55.296c-3.04-1.653-6.079-3.307-9.118-4.96c5.598,3.045,9.314,9.276,9.3,16.954
						c-0.017,9.251-5.445,17.927-13.038,22.071l3.475,1.89c0.719,0.391,1.194,1.193,1.192,2.181
						c-0.003,1.539-1.151,2.937-2.568,3.136l-8.958-4.873c-0.054,0.008-0.107,0.017-0.161,0.025
						c-3.923,0.551-7.583-0.159-10.672-1.839l9.118,4.96c3.088,1.68,6.749,2.391,10.672,1.839
						c11.037-1.552,20.035-12.515,20.057-24.43C73.609,64.572,69.894,58.341,64.295,55.296z"/>
				</g>
				<g>
					<path fill="#FFFFFF" d="M43.042,91.372c0.397,0.216,0.87,0.307,1.378,0.236c2.685,1.46,5.369,2.92,8.053,4.381l1.065,0.579
						c-0.509,0.071-0.981-0.019-1.378-0.235C49.424,94.844,45.777,92.86,43.042,91.372z"/>
				</g>
				<g>
					<path d="M31.019,113.967c3.039,1.652,6.078,3.307,9.118,4.959c-0.397-0.215-0.869-0.307-1.374-0.236l-9.118-4.961
						C30.149,113.658,30.621,113.75,31.019,113.967z"/>
				</g>
				<g>
					<path d="M37.381,124.004l-9.118-4.959c-0.392-0.213-0.712-0.549-0.922-0.971c-0.175-0.35-0.274-0.76-0.273-1.207
						c0.003-1.539,1.159-2.939,2.577-3.139l9.118,4.961c-1.417,0.199-2.574,1.598-2.577,3.137c-0.001,0.449,0.098,0.857,0.273,1.209
						C36.668,123.455,36.989,123.791,37.381,124.004z"/>
				</g>
				<g>
					<path d="M68.26,120.094c0.997-0.141,1.857-0.871,2.286-1.82c3.972,3.984,6.404,9.766,6.391,16.496
						c-0.013,7.148-2.779,14-7.208,19.232c-0.429-0.291-0.965-0.424-1.547-0.342c-1.418,0.199-2.574,1.598-2.577,3.129
						c0,0.387,0.073,0.746,0.207,1.063c-3.604,2.932-7.854,4.93-12.399,5.568c-4.548,0.639-8.796-0.164-12.392-2.084
						c0.134-0.355,0.209-0.734,0.209-1.121c0.003-1.531-1.148-2.605-2.565-2.406c-0.582,0.082-1.119,0.365-1.551,0.777
						c-4.412-3.992-7.153-10.068-7.14-17.215c0.013-6.746,2.479-13.229,6.484-18.336c0.422,0.846,1.291,1.346,2.293,1.205
						c1.418-0.199,2.574-1.605,2.577-3.137c0.002-0.93-0.418-1.688-1.062-2.1c3.775-3.314,8.336-5.588,13.241-6.277
						c4.91-0.689,9.47,0.305,13.238,2.568c-0.635,0.594-1.049,1.463-1.051,2.385C65.692,119.209,66.843,120.293,68.26,120.094z
						 M53.425,156.857c9.596-1.35,17.413-10.875,17.433-21.234c0.02-10.357-7.767-17.691-17.362-16.342
						c-9.604,1.35-17.43,10.877-17.449,21.236C36.027,150.875,43.821,158.207,53.425,156.857"/>
				</g>
				<g>
					<path d="M37.114,158.586l-9.118-4.961c-4.412-3.99-7.153-10.068-7.14-17.215c0.013-6.744,2.479-13.229,6.484-18.336
						l9.118,4.961c-4.004,5.107-6.471,11.59-6.484,18.336C29.961,148.518,32.702,154.594,37.114,158.586z"/>
				</g>
				<g>
					<path d="M38.762,118.689c0.562-0.078,1.081,0.043,1.504,0.314c0.644,0.412,1.063,1.17,1.062,2.1
						c-0.003,1.531-1.159,2.938-2.577,3.137c-1.002,0.141-1.871-0.359-2.293-1.205c-0.175-0.352-0.274-0.76-0.273-1.209
						C36.188,120.287,37.345,118.889,38.762,118.689z"/>
				</g>
				<g>
					<path d="M52.16,96.332l-9.118-4.96c-0.717-0.39-1.19-1.188-1.188-2.179c0.003-1.531,1.151-2.937,2.577-3.137l9.118,4.96
						c-1.426,0.2-2.574,1.606-2.577,3.137C50.97,95.144,51.443,95.942,52.16,96.332z"/>
				</g>
				<g>
					<path fill="#FFFFFF" d="M45.716,89.563c-3.04-1.653-6.079-3.306-9.118-4.96c2.266,1.233,4.953,1.754,7.833,1.349l9.118,4.96
						C50.668,91.317,47.982,90.796,45.716,89.563z"/>
				</g>
				<g>
					<path d="M45.716,89.563l-9.118-4.96c-4.106-2.233-6.83-6.803-6.82-12.436c0.017-8.732,6.614-16.765,14.712-17.903
						c2.876-0.404,5.561,0.116,7.825,1.348c3.04,1.653,6.079,3.307,9.118,4.96c-2.265-1.232-4.949-1.752-7.826-1.348
						c-8.098,1.138-14.696,9.171-14.712,17.903C38.885,82.76,41.61,87.33,45.716,89.563z"/>
				</g>
				<g>
					<path fill="#FFFFFF" d="M47.059,51.024c0.002-0.988-0.474-1.79-1.192-2.181l9.118,4.96c0.719,0.391,1.194,1.193,1.192,2.181
						c-0.003,1.53-1.151,2.928-2.568,3.127c-0.509,0.072-0.982-0.02-1.38-0.236c-2.28-1.24-4.559-2.48-6.839-3.72
						c-0.76-0.413-1.52-0.827-2.279-1.24c0.397,0.216,0.871,0.308,1.38,0.236C45.908,53.952,47.056,52.555,47.059,51.024z"/>
				</g>
				<g>
					<path d="M45.866,48.844c3.04,1.653,6.079,3.307,9.118,4.96c-0.395-0.214-0.863-0.305-1.366-0.235l-9.118-4.96
						C45.003,48.539,45.472,48.629,45.866,48.844z"/>
				</g>
				<g>
					<path d="M52.229,58.875c-3.04-1.653-6.079-3.307-9.118-4.96c-0.716-0.39-1.188-1.186-1.186-2.169
						c0.002-1.531,1.15-2.937,2.576-3.137l9.118,4.96c-1.426,0.201-2.574,1.606-2.577,3.137
						C51.04,57.69,51.512,58.486,52.229,58.875z"/>
				</g>
				<g>
					<path d="M53.619,53.569c1.417-0.199,2.561,0.885,2.558,2.416c-0.003,1.53-1.151,2.928-2.568,3.127
						c-1.426,0.201-2.569-0.875-2.566-2.405C51.045,55.175,52.193,53.77,53.619,53.569z"/>
				</g>
				<g>
					<path d="M53.549,90.913c-8.099,1.138-14.669-5.043-14.653-13.785c0.016-8.732,6.614-16.765,14.712-17.903
						c8.09-1.137,14.661,5.044,14.645,13.777C68.236,81.743,61.639,89.775,53.549,90.913z"/>
				</g>
				<g>
					<path fill="#FFFFFF" d="M42.866,94.84l-9.118-4.96c-5.601-3.047-9.319-9.283-9.305-16.963
						c0.022-11.915,9.02-22.869,20.058-24.42l9.118,4.96c-11.038,1.551-20.035,12.506-20.058,24.42
						C33.547,85.558,37.265,91.793,42.866,94.84z"/>
				</g>
				<g>
					<path fill="#FFFFFF" d="M53.619,53.457c11.038-1.552,19.999,6.878,19.977,18.793c-0.022,11.915-9.02,22.878-20.057,24.43
						C42.5,98.231,33.539,89.792,33.561,77.877C33.583,65.963,42.581,55.008,53.619,53.457z M53.549,90.913
						c8.09-1.137,14.688-9.17,14.704-17.912c0.017-8.732-6.554-14.914-14.645-13.777c-8.098,1.138-14.696,9.171-14.712,17.903
						C38.879,85.869,45.45,92.051,53.549,90.913 M53.538,96.567c1.417-0.199,2.565-1.597,2.568-3.136
						c0.003-1.531-1.141-2.615-2.558-2.416c-1.426,0.2-2.574,1.606-2.577,3.137C50.969,95.692,52.112,96.768,53.538,96.567
						 M53.619,53.569c-1.426,0.201-2.574,1.606-2.577,3.137c-0.003,1.53,1.141,2.606,2.566,2.405
						c1.417-0.199,2.565-1.597,2.568-3.127C56.179,54.454,55.036,53.37,53.619,53.569"/>
				</g>
				<g>
					<path d="M53.548,91.016c1.417-0.199,2.561,0.885,2.558,2.416c-0.003,1.539-1.151,2.937-2.568,3.136
						c-1.426,0.201-2.569-0.875-2.566-2.414C50.975,92.623,52.123,91.216,53.548,91.016z"/>
				</g>
				<g>
					<path fill="#FFFFFF" d="M53.513,109.84c14.417-2.027,26.121,8.99,26.092,24.555c-0.016,8.455-3.493,16.543-8.977,22.492
						c0.072-0.266,0.111-0.541,0.112-0.82c0.001-0.902-0.395-1.645-1.011-2.064c4.429-5.232,7.195-12.084,7.208-19.232
						c0.013-6.73-2.419-12.512-6.391-16.496c0.185-0.408,0.29-0.857,0.291-1.316c0.003-1.541-1.141-2.615-2.566-2.416
						c-0.569,0.08-1.098,0.355-1.525,0.754c-3.768-2.264-8.328-3.258-13.238-2.568c-4.905,0.689-9.466,2.963-13.241,6.277
						c-0.423-0.271-0.943-0.393-1.504-0.314c-1.417,0.199-2.574,1.598-2.577,3.137c-0.001,0.449,0.098,0.857,0.273,1.209
						c-4.004,5.107-6.471,11.59-6.484,18.336c-0.013,7.146,2.728,13.223,7.14,17.215c-0.621,0.592-1.024,1.447-1.026,2.352
						c0,0.275,0.037,0.535,0.106,0.779c-5.46-4.41-8.903-11.521-8.887-19.971C27.336,126.182,39.087,111.867,53.513,109.84z"/>
				</g>
				<g>
					<path fill="#FFFFFF" d="M36.195,161.717l-9.118-4.961c-5.46-4.41-8.903-11.52-8.887-19.971
						c0.029-15.563,11.78-29.879,26.206-31.906l9.118,4.961c-14.426,2.027-26.177,16.342-26.206,31.906
						C27.292,150.195,30.735,157.307,36.195,161.717z"/>
				</g>
				<g>
					<path fill="#FFFFFF" d="M55.177,50.336l9.118,4.96c-3.089-1.681-6.751-2.391-10.677-1.839l-9.118-4.96
						C48.426,47.945,52.088,48.656,55.177,50.336z"/>
				</g>
				<g>
					<polygon points="13.929,46.562 4.811,41.602 84.23,30.439 93.348,35.399 					"/>
				</g>
				<g>
					<path d="M13.929,46.562l79.419-11.163l-0.255,136.291l-79.419,11.164L13.929,46.562z M70.628,156.887
						c5.484-5.949,8.961-14.037,8.977-22.492c0.029-15.564-11.674-26.582-26.092-24.555c-14.426,2.027-26.177,16.342-26.206,31.906
						c-0.016,8.449,3.427,15.561,8.887,19.971c0.304,1.061,1.23,1.748,2.34,1.648c4.221,2.572,9.347,3.711,14.873,2.934
						c5.523-0.775,10.655-3.355,14.886-7.117C69.398,158.971,70.319,158.029,70.628,156.887 M53.619,53.457
						c-11.038,1.551-20.035,12.506-20.058,24.42C33.539,89.792,42.5,98.231,53.538,96.68c11.038-1.552,20.035-12.515,20.057-24.43
						C73.617,60.335,64.656,51.905,53.619,53.457"/>
				</g>
				<g>
					<polygon points="13.673,182.854 4.555,177.895 4.811,41.602 13.929,46.562 					"/>
				</g>
			</g>
		</g>
	</g>
	<rect x="12.978" y="60.653" width="11.993" height="97.386"/>
	<rect x="18.974" y="40.968" width="71.396" height="10.735"/>
	<g>
		<g>
			<g enable-background="new    ">
				<g>
					<path d="M172.591,116.133c3.04,1.652,6.079,3.309,9.118,4.961c-0.017,8.451-3.492,16.535-8.974,22.484l-9.118-4.961
						C169.1,132.67,172.575,124.584,172.591,116.133z"/>
				</g>
				<g>
					<path fill="#FFFFFF" d="M163.726,137.813c3.039,1.652,6.079,3.307,9.118,4.959c-0.001,0.275-0.038,0.545-0.108,0.807
						l-9.118-4.961C163.688,138.357,163.726,138.088,163.726,137.813z"/>
				</g>
				<g>
					<path d="M161.273,140.92c1.108-0.213,2.036-1.16,2.344-2.303l9.118,4.961c-0.308,1.143-1.235,2.09-2.344,2.303
						C167.656,144.393,164.01,142.408,161.273,140.92z"/>
				</g>
				<g>
					<path fill="#FFFFFF" d="M163.726,137.813c0.002-0.908-0.398-1.652-1.017-2.072c2.684,1.461,5.368,2.922,8.053,4.381l1.064,0.58
						c0.619,0.418,1.02,1.164,1.018,2.07C169.805,141.119,166.765,139.465,163.726,137.813L163.726,137.813z"/>
				</g>
				<g>
					<path d="M146.386,148.039c5.523-0.777,10.655-3.357,14.888-7.119c2.685,1.461,5.368,2.922,8.054,4.381l1.064,0.58
						c-4.232,3.762-9.364,6.342-14.888,7.117c-5.13,0.721-9.915-0.207-13.951-2.402l-9.117-4.961
						C136.472,147.83,141.256,148.76,146.386,148.039z"/>
				</g>
				<g>
					<path fill="#FFFFFF" d="M161.149,140.941c0.042-0.006,0.084-0.014,0.124-0.021l9.118,4.961c-0.04,0.006-0.082,0.014-0.124,0.02
						c-0.505,0.072-0.976-0.02-1.372-0.236c-0.137-0.074-0.319-0.174-0.456-0.248c-1.368-0.744-2.735-1.486-4.104-2.23
						c-1.52-0.828-3.039-1.654-4.559-2.48l0,0C160.175,140.92,160.645,141.012,161.149,140.941z"/>
				</g>
				<g>
					<path d="M172.591,116.133c0.019-10.027-4.835-18.165-12.147-22.142l9.118,4.96c7.312,3.977,12.166,12.114,12.147,22.141
						C178.67,119.439,175.631,117.785,172.591,116.133z"/>
				</g>
				<g>
					<path fill="#FFFFFF" d="M169.916,116.508c0.013-6.73-2.419-12.512-6.391-16.496c2.685,1.46,5.368,2.921,8.053,4.38l1.065,0.58
						c3.971,3.982,6.403,9.766,6.391,16.496c-0.014,7.146-2.778,13.998-7.208,19.232l-9.117-4.961
						C167.138,130.508,169.902,123.656,169.916,116.508z"/>
				</g>
				<g>
					<path d="M162.709,135.74c-0.057-0.037-0.115-0.072-0.175-0.105l9.118,4.959c0.06,0.033,0.118,0.068,0.174,0.107
						c-1.519-0.826-3.038-1.654-4.558-2.48c-0.358-0.193-0.835-0.453-1.193-0.648c-0.177-0.096-0.413-0.225-0.59-0.32
						c-0.175-0.096-0.407-0.223-0.582-0.316c-0.339-0.186-0.79-0.432-1.129-0.615C163.454,136.146,163.02,135.93,162.709,135.74z"/>
				</g>
				<g>
					<path d="M162.534,135.635c3.039,1.652,6.078,3.307,9.118,4.959c-0.397-0.215-0.869-0.307-1.374-0.234l-9.118-4.961
						C161.665,135.328,162.137,135.418,162.534,135.635z"/>
				</g>
				<g>
					<path d="M168.896,145.664c-3.039-1.652-6.078-3.307-9.118-4.959c-0.437-0.238-0.783-0.625-0.988-1.113
						c-0.133-0.314-0.206-0.672-0.205-1.057c0.003-1.539,1.158-2.938,2.576-3.137l9.118,4.961c-1.418,0.199-2.573,1.598-2.576,3.135
						c-0.001,0.387,0.072,0.742,0.204,1.059C168.112,145.039,168.459,145.428,168.896,145.664z"/>
				</g>
				<g>
					<path fill="#FFFFFF" d="M146.391,145.158c4.545-0.639,8.795-2.637,12.398-5.566l9.117,4.961
						c-3.603,2.93-7.853,4.928-12.397,5.566c-4.547,0.639-8.794-0.166-12.389-2.084l-9.118-4.959
						C137.597,144.994,141.844,145.799,146.391,145.158z"/>
				</g>
				<g>
					<path d="M146.403,138.596c9.597-1.348,17.422-10.875,17.441-21.234c3.038,1.656,6.079,3.307,9.118,4.961
						c-0.02,10.357-7.846,19.885-17.441,21.234C152.786,142.068,149.139,140.084,146.403,138.596z"/>
				</g>
				<g>
					<path d="M161.247,101.83c0.991-0.139,1.85-0.869,2.278-1.818l9.118,4.96c-0.429,0.949-1.287,1.68-2.278,1.818
						C167.63,105.303,163.982,103.318,161.247,101.83z"/>
				</g>
				<g>
					<path d="M159.872,101.596c0.396,0.215,0.868,0.307,1.375,0.234c2.685,1.461,5.369,2.922,8.054,4.381l1.064,0.58
						c-0.507,0.07-0.979-0.02-1.375-0.236C166.255,105.066,162.607,103.082,159.872,101.596z"/>
				</g>
				<g>
					<path fill="#FFFFFF" d="M163.815,98.694c0.002-0.987-0.474-1.789-1.192-2.18l9.118,4.96c0.719,0.391,1.194,1.191,1.192,2.18
						c-0.001,0.461-0.106,0.91-0.29,1.318l-9.118-4.96C163.71,99.604,163.814,99.155,163.815,98.694z"/>
				</g>
				<g>
					<path d="M162.623,96.514l9.118,4.96c-0.395-0.215-0.863-0.307-1.365-0.234l-9.118-4.961
						C161.761,96.209,162.229,96.299,162.623,96.514z"/>
				</g>
				<g>
					<path d="M168.99,106.555l-9.118-4.959c-0.719-0.393-1.193-1.193-1.191-2.179c0.002-0.915,0.413-1.785,1.048-2.38
						c0.427-0.4,0.955-0.677,1.529-0.757l9.118,4.961c-0.574,0.08-1.103,0.355-1.529,0.756c-0.636,0.596-1.046,1.465-1.048,2.381
						C167.797,105.363,168.271,106.164,168.99,106.555z"/>
				</g>
				<g>
					<path d="M170.376,101.24c1.417-0.199,2.561,0.885,2.558,2.414c-0.001,0.461-0.106,0.91-0.29,1.318
						c-0.429,0.949-1.287,1.68-2.278,1.818c-1.426,0.199-2.569-0.885-2.566-2.414c0.002-0.916,0.412-1.785,1.048-2.381
						C169.273,101.596,169.802,101.32,170.376,101.24z"/>
				</g>
				<g>
					<path d="M137.121,136.996c2.686,1.463,5.87,2.08,9.282,1.6l9.118,4.961c-3.412,0.479-6.597-0.139-9.282-1.6
						C143.504,140.469,139.856,138.484,137.121,136.996z"/>
				</g>
				<g>
					<path fill="#FFFFFF" d="M149.095,136.682c-3.04-1.654-6.079-3.307-9.118-4.961c1.862,1.014,4.07,1.441,6.438,1.109l9.118,4.959
						C153.165,138.123,150.956,137.693,149.095,136.682z"/>
				</g>
				<g>
					<path d="M163.845,117.361c0.013-6.676-3.22-12.094-8.089-14.742l9.118,4.959c4.869,2.648,8.102,8.068,8.089,14.744
						C169.924,120.668,166.883,119.018,163.845,117.361z"/>
				</g>
				<g>
					<path fill="#FFFFFF" d="M152.895,107.896c1.52,0.826,3.039,1.652,4.56,2.48c1.52,0.826,3.039,1.652,4.559,2.479
						c3.375,1.836,5.616,5.592,5.607,10.217c-0.014,7.186-5.439,13.783-12.088,14.717l-9.118-4.959
						c6.649-0.936,12.074-7.533,12.088-14.717C158.511,113.488,156.27,109.732,152.895,107.896z"/>
				</g>
				<g>
					<path fill="#FFFFFF" d="M159.009,96.625c1.52,0.827,3.039,1.653,4.56,2.48c1.52,0.826,3.039,1.653,4.559,2.479
						c0.243,0.133,0.482,0.27,0.72,0.412l-9.118-4.959C159.492,96.894,159.252,96.757,159.009,96.625z"/>
				</g>
				<g>
					<path fill="#FFFFFF" d="M167.906,144.553c0.393,0.93,1.302,1.498,2.361,1.348c0.042-0.006,0.084-0.014,0.124-0.02
						c-4.232,3.762-9.364,6.342-14.888,7.117c-5.526,0.777-10.652-0.361-14.873-2.936c0.043-0.004,0.085-0.008,0.128-0.014
						c1.06-0.148,1.968-0.971,2.361-2.014c3.595,1.918,7.842,2.723,12.389,2.084C160.054,149.48,164.304,147.482,167.906,144.553z"
						/>
				</g>
				<g>
					<path fill="#FFFFFF" d="M132.437,145.637c-0.313-0.17-0.62-0.348-0.924-0.533l9.118,4.959c0.303,0.186,0.611,0.363,0.924,0.533
						C138.818,149.107,135.172,147.123,132.437,145.637z"/>
				</g>
				<g>
					<path fill="#FFFFFF" d="M131.641,145.09c1.06-0.15,1.968-0.973,2.361-2.014l9.118,4.959c-0.394,1.043-1.302,1.865-2.361,2.014
						c-0.043,0.006-0.085,0.01-0.128,0.014l-9.118-4.959C131.556,145.1,131.598,145.096,131.641,145.09z"/>
				</g>
				<g>
					<path d="M130.266,144.854c0.363,0.197,0.789,0.289,1.247,0.25c2.685,1.461,5.369,2.92,8.054,4.381l1.064,0.578
						c-0.459,0.041-0.884-0.053-1.247-0.25C136.648,148.324,133.001,146.34,130.266,144.854z"/>
				</g>
				<g>
					<path d="M134.209,141.961c0.002-0.99-0.472-1.791-1.188-2.18l9.118,4.959c0.717,0.391,1.19,1.189,1.188,2.182
						c-0.001,0.385-0.075,0.762-0.207,1.113l-9.118-4.959C134.135,142.725,134.208,142.346,134.209,141.961z"/>
				</g>
				<g>
					<path d="M133.021,139.781l9.118,4.959c-0.396-0.215-0.865-0.305-1.37-0.234l-9.117-4.959
						C132.155,139.475,132.625,139.566,133.021,139.781z"/>
				</g>
				<g>
					<path d="M139.384,149.813c-3.039-1.654-6.078-3.307-9.118-4.959c-0.517-0.281-0.906-0.773-1.084-1.393
						c-0.069-0.242-0.107-0.502-0.106-0.777c0.001-0.906,0.401-1.764,1.02-2.357c0.432-0.412,0.972-0.697,1.557-0.779l9.117,4.959
						c-0.585,0.082-1.124,0.367-1.556,0.781c-0.619,0.592-1.019,1.449-1.021,2.355c0,0.275,0.038,0.537,0.106,0.777
						C138.478,149.039,138.867,149.531,139.384,149.813z"/>
				</g>
				<g>
					<path d="M140.769,144.506c1.419-0.199,2.562,0.877,2.559,2.416c-0.001,0.385-0.075,0.762-0.207,1.113
						c-0.394,1.043-1.302,1.865-2.361,2.014c-0.043,0.006-0.085,0.01-0.128,0.014c-1.11,0.098-2.028-0.588-2.332-1.643
						c-0.068-0.24-0.106-0.502-0.106-0.777c0.002-0.906,0.401-1.764,1.021-2.355C139.645,144.873,140.184,144.588,140.769,144.506z"
						/>
				</g>
				<g>
					<path d="M146.463,106.787c2.363-0.332,4.57,0.096,6.432,1.109l9.118,4.959c-1.862-1.012-4.068-1.439-6.432-1.107
						C152.846,110.26,149.198,108.275,146.463,106.787z"/>
				</g>
				<g>
					<path fill="#FFFFFF" d="M155.756,102.619c3.039,1.652,6.079,3.307,9.118,4.959c-2.687-1.461-5.87-2.078-9.282-1.6l-9.118-4.959
						C149.886,100.54,153.07,101.158,155.756,102.619z"/>
				</g>
				<g>
					<path d="M139.978,131.723c-3.373-1.836-5.61-5.59-5.602-10.219c3.039,1.654,6.078,3.307,9.118,4.961
						c-0.009,4.629,2.229,8.383,5.602,10.217C146.36,135.193,142.713,133.209,139.978,131.723z"/>
				</g>
				<g>
					<path d="M134.376,121.504c0.013-7.176,5.431-13.781,12.087-14.717l9.118,4.961c-6.656,0.936-12.074,7.539-12.087,14.717
						C140.454,124.811,137.415,123.158,134.376,121.504z"/>
				</g>
				<g>
					<path fill="#FFFFFF" d="M146.239,141.957c-3.04-1.654-6.079-3.307-9.118-4.961c-4.868-2.646-8.101-8.066-8.088-14.742
						c0.02-10.357,7.845-19.887,17.44-21.234l9.118,4.959c-9.597,1.35-17.421,10.877-17.44,21.236
						C138.139,133.891,141.371,139.309,146.239,141.957z"/>
				</g>
				<g>
					<path d="M159.009,96.625l9.118,4.959c-3.624-1.97-7.92-2.805-12.522-2.158c-4.906,0.689-9.468,2.962-13.243,6.277l-9.118-4.959
						c3.775-3.315,8.337-5.588,13.243-6.277C151.089,93.819,155.385,94.654,159.009,96.625z"/>
				</g>
				<g>
					<path fill="#FFFFFF" d="M146.491,91.587c5.128-0.721,9.913,0.207,13.95,2.402l9.117,4.96
						c-4.036-2.196-8.821-3.124-13.949-2.403C152.874,95.059,149.227,93.075,146.491,91.587z"/>
				</g>
				<g>
					<path fill="#FFFFFF" d="M155.592,105.979c9.596-1.348,17.391,5.984,17.371,16.344c-0.02,10.357-7.846,19.885-17.441,21.234
						c-9.597,1.35-17.39-5.982-17.37-16.342S145.995,107.328,155.592,105.979z M155.532,137.789
						c6.648-0.934,12.074-7.531,12.088-14.717c0.014-7.176-5.391-12.26-12.039-11.324c-6.656,0.936-12.074,7.539-12.087,14.717
						C143.48,133.648,148.876,138.725,155.532,137.789"/>
				</g>
				<g>
					<path d="M134.307,102.842c0.002-0.924-0.418-1.684-1.063-2.098c2.685,1.459,5.369,2.92,8.054,4.381l1.064,0.578
						c0.645,0.414,1.064,1.176,1.063,2.1c-0.003,1.531-1.159,2.938-2.576,3.137c-0.505,0.07-0.975-0.02-1.371-0.236l-9.118-4.959
						c0.396,0.215,0.867,0.307,1.371,0.236C133.147,105.781,134.304,104.373,134.307,102.842z"/>
				</g>
				<g>
					<path fill="#FFFFFF" d="M133.243,100.744c-0.043-0.028-0.088-0.055-0.133-0.079l9.118,4.96c0.045,0.023,0.09,0.051,0.133,0.078
						C139.626,104.215,135.923,102.33,133.243,100.744z"/>
				</g>
				<g>
					<path d="M147.902,73l9.117,4.96c-0.397-0.216-0.869-0.308-1.375-0.236l-9.118-4.96C147.032,72.692,147.504,72.784,147.902,73z"
						/>
				</g>
				<g>
					<path fill="#FFFFFF" d="M154.41,42.311l9.118,4.96c4.105,2.233,6.831,6.804,6.821,12.438
						c-0.017,8.732-6.615,16.766-14.705,17.903l-9.117-4.96c8.09-1.137,14.688-9.17,14.704-17.903
						C161.242,49.115,158.516,44.544,154.41,42.311z"/>
				</g>
				<g>
					<path d="M144.958,81.539c-1.52-0.827-3.04-1.653-4.56-2.48s-3.039-1.653-4.559-2.48c3.089,1.681,6.752,2.391,10.676,1.839
						c11.039-1.552,20.036-12.506,20.059-24.421c0.014-7.68-3.704-13.916-9.306-16.963c3.04,1.653,6.079,3.307,9.118,4.96
						c5.602,3.047,9.319,9.283,9.305,16.963c-0.021,11.915-9.02,22.87-20.058,24.421C151.709,83.93,148.047,83.22,144.958,81.539z"
						/>
				</g>
				<g>
					<path fill="#FFFFFF" d="M157.021,77.96l-0.811-0.441c0,0,0,0,0,0L157.021,77.96c-0.398-0.216-0.87-0.307-1.376-0.236
						l-6.795-3.696c0.157,0.337,0.244,0.726,0.244,1.15c-0.003,1.53-1.16,2.929-2.577,3.128l9.118,4.96
						c1.417-0.199,2.573-1.598,2.576-3.128C158.213,79.148,157.737,78.35,157.021,77.96z"/>
				</g>
				<g>
					<path fill="#FFFFFF" d="M145.137,78.07c0.397,0.217,0.871,0.308,1.38,0.236l9.118,4.96c-0.51,0.071-0.982-0.02-1.38-0.236
						C151.52,81.542,147.872,79.558,145.137,78.07z"/>
				</g>
				<g>
					<path d="M133.11,100.665l9.118,4.96c-0.396-0.217-0.867-0.307-1.37-0.236l-9.117-4.96
						C132.244,100.358,132.714,100.449,133.11,100.665z"/>
				</g>
				<g>
					<path d="M122.953,123.109c0.013-6.744,2.479-13.229,6.483-18.336c2.685,1.461,5.368,2.922,8.054,4.381l1.064,0.58
						c-4.005,5.107-6.471,11.59-6.483,18.336c-0.013,7.146,2.729,13.225,7.142,17.217l-9.118-4.961
						C125.682,136.336,122.94,130.258,122.953,123.109z"/>
				</g>
				<g>
					<path d="M139.478,110.703l-9.118-4.959c-0.392-0.215-0.712-0.549-0.923-0.971c-0.175-0.35-0.273-0.76-0.272-1.209
						c0.003-1.529,1.159-2.937,2.577-3.136l9.117,4.96c-1.417,0.199-2.574,1.605-2.577,3.137c0,0.447,0.099,0.857,0.273,1.209
						C138.765,110.154,139.086,110.49,139.478,110.703z"/>
				</g>
				<g>
					<path d="M140.858,105.389c0.561-0.078,1.08,0.043,1.503,0.314c0.645,0.414,1.064,1.176,1.063,2.1
						c-0.003,1.531-1.159,2.938-2.576,3.137c-1.003,0.141-1.871-0.359-2.294-1.205c-0.175-0.352-0.273-0.762-0.273-1.209
						C138.284,106.994,139.441,105.588,140.858,105.389z"/>
				</g>
				<g>
					<path d="M154.255,83.03l-9.118-4.96c-0.716-0.39-1.188-1.186-1.187-2.169c0.003-1.54,1.151-2.937,2.576-3.137l9.118,4.96
						c-1.425,0.2-2.573,1.598-2.576,3.137C153.066,81.845,153.539,82.641,154.255,83.03z"/>
				</g>
				<g>
					<path fill="#FFFFFF" d="M147.811,76.262c-3.039-1.653-6.078-3.307-9.117-4.96c2.266,1.233,4.953,1.754,7.834,1.349l9.117,4.96
						C152.765,78.016,150.077,77.495,147.811,76.262z"/>
				</g>
				<g>
					<path d="M147.811,76.262l-9.117-4.96c-4.105-2.233-6.83-6.801-6.819-12.427c0.017-8.742,6.614-16.774,14.712-17.913
						c2.876-0.404,5.561,0.116,7.824,1.348l9.118,4.96c-2.265-1.231-4.948-1.752-7.824-1.348
						c-8.098,1.138-14.695,9.171-14.712,17.913C140.981,69.461,143.706,74.029,147.811,76.262z"/>
				</g>
				<g>
					<path fill="#FFFFFF" d="M149.163,37.722c0.002-0.986-0.476-1.786-1.194-2.177l9.118,4.96c0.719,0.391,1.196,1.191,1.194,2.177
						c-0.003,1.531-1.159,2.938-2.577,3.137c-0.507,0.071-0.978-0.02-1.374-0.236l-9.118-4.96c0.396,0.216,0.868,0.307,1.375,0.236
						C148.004,40.66,149.16,39.252,149.163,37.722z"/>
				</g>
				<g>
					<path d="M147.969,35.544c3.039,1.653,6.078,3.307,9.118,4.96c-0.397-0.216-0.868-0.307-1.372-0.236l-9.118-4.96
						C147.102,35.237,147.571,35.329,147.969,35.544z"/>
				</g>
				<g>
					<path d="M154.33,45.583c-3.039-1.653-6.078-3.307-9.118-4.96c-0.719-0.392-1.193-1.192-1.191-2.179
						c0.003-1.53,1.151-2.937,2.576-3.137l9.118,4.96c-1.426,0.2-2.573,1.606-2.576,3.137
						C153.137,44.391,153.611,45.192,154.33,45.583z"/>
				</g>
				<g>
					<path d="M155.715,40.268c1.418-0.199,2.569,0.883,2.566,2.414c-0.003,1.531-1.159,2.938-2.577,3.137
						c-1.425,0.2-2.568-0.884-2.565-2.414S154.289,40.468,155.715,40.268z"/>
				</g>
				<g>
					<path d="M155.645,77.611c-8.098,1.138-14.669-5.044-14.652-13.776c0.017-8.742,6.614-16.774,14.712-17.913
						c8.09-1.137,14.661,5.045,14.646,13.786C170.333,68.441,163.734,76.474,155.645,77.611z"/>
				</g>
				<g>
					<path fill="#FFFFFF" d="M144.958,81.539l-9.118-4.96c-5.599-3.045-9.314-9.276-9.301-16.954
						c0.022-11.915,9.021-22.878,20.058-24.43l9.118,4.96c-11.037,1.552-20.035,12.515-20.058,24.43
						C135.643,72.263,139.359,78.494,144.958,81.539z"/>
				</g>
				<g>
					<path fill="#FFFFFF" d="M155.715,40.155c11.038-1.551,19.999,6.888,19.977,18.802c-0.021,11.915-9.02,22.87-20.058,24.421
						c-11.037,1.552-19.999-6.879-19.977-18.793S144.678,41.707,155.715,40.155z M155.645,77.611
						c8.09-1.137,14.688-9.17,14.705-17.903c0.016-8.741-6.556-14.923-14.646-13.786c-8.098,1.138-14.695,9.171-14.712,17.913
						C140.976,72.567,147.547,78.75,155.645,77.611 M155.715,40.268c-1.426,0.2-2.573,1.606-2.576,3.137s1.141,2.614,2.565,2.414
						c1.418-0.199,2.574-1.606,2.577-3.137C158.284,41.151,157.133,40.069,155.715,40.268 M155.635,83.266
						c1.417-0.199,2.573-1.598,2.576-3.128c0.003-1.539-1.148-2.613-2.566-2.414c-1.425,0.2-2.573,1.598-2.576,3.137
						C153.065,82.391,154.209,83.466,155.635,83.266"/>
				</g>
				<g>
					<path d="M155.645,77.724c1.418-0.199,2.569,0.875,2.566,2.414c-0.003,1.53-1.159,2.929-2.576,3.128
						c-1.426,0.2-2.569-0.875-2.566-2.405C153.071,79.322,154.22,77.924,155.645,77.724z"/>
				</g>
				<g>
					<path fill="#FFFFFF" d="M155.609,96.547c14.418-2.027,26.129,8.982,26.1,24.545c-0.016,8.453-3.492,16.537-8.974,22.486
						c0.07-0.262,0.107-0.531,0.108-0.807c0.002-0.906-0.398-1.652-1.018-2.07c4.43-5.234,7.194-12.086,7.208-19.232
						c0.013-6.73-2.42-12.514-6.391-16.496c0.184-0.408,0.289-0.857,0.29-1.318c0.003-1.529-1.141-2.613-2.558-2.414
						c-0.574,0.08-1.103,0.355-1.529,0.756c-3.769-2.264-8.331-3.26-13.242-2.57c-4.906,0.689-9.468,2.962-13.243,6.277
						c-0.423-0.271-0.942-0.393-1.503-0.314c-1.417,0.199-2.574,1.605-2.577,3.137c0,0.447,0.099,0.857,0.273,1.209
						c-4.005,5.107-6.471,11.59-6.483,18.336c-0.013,7.146,2.729,13.225,7.142,17.217c-0.619,0.592-1.019,1.449-1.021,2.355
						c0,0.275,0.038,0.537,0.106,0.777c-5.464-4.408-8.91-11.521-8.895-19.977C129.434,112.881,141.184,98.575,155.609,96.547z"/>
				</g>
				<g>
					<path fill="#FFFFFF" d="M138.299,148.42l-9.118-4.959c-5.464-4.408-8.91-11.523-8.895-19.977
						c0.029-15.564,11.779-29.87,26.205-31.897l9.118,4.96c-14.426,2.028-26.176,16.334-26.205,31.896
						C129.389,136.898,132.835,144.012,138.299,148.42z"/>
				</g>
				<g>
					<path fill="#FFFFFF" d="M157.269,37.035c3.039,1.653,6.079,3.307,9.118,4.96c-3.088-1.68-6.749-2.391-10.672-1.839l-9.118-4.96
						C150.52,34.644,154.181,35.354,157.269,37.035z"/>
				</g>
				<g>
					<path d="M116.033,33.26l79.411-11.162l-0.256,136.3l-79.41,11.162L116.033,33.26z M172.735,143.578
						c5.481-5.949,8.958-14.033,8.974-22.486c0.029-15.563-11.682-26.572-26.1-24.545c-14.426,2.028-26.176,16.334-26.205,31.896
						c-0.016,8.455,3.431,15.568,8.895,19.977c0.304,1.055,1.222,1.74,2.332,1.643c4.221,2.574,9.347,3.713,14.873,2.936
						c5.523-0.775,10.655-3.355,14.888-7.117C171.5,145.668,172.428,144.721,172.735,143.578 M155.715,40.155
						c-11.037,1.552-20.035,12.515-20.058,24.43s8.939,20.345,19.977,18.793c11.038-1.551,20.036-12.506,20.058-24.421
						C175.714,47.043,166.753,38.604,155.715,40.155"/>
				</g>
				<g>
					<path d="M170.278,140.359c0.581-0.082,1.118,0.051,1.548,0.342c0.619,0.418,1.02,1.164,1.018,2.07
						c-0.001,0.275-0.038,0.545-0.108,0.807c-0.308,1.143-1.235,2.09-2.344,2.303c-0.04,0.008-0.082,0.014-0.124,0.02
						c-1.06,0.15-1.969-0.418-2.361-1.348c-0.132-0.316-0.205-0.672-0.204-1.059C167.705,141.957,168.86,140.559,170.278,140.359z"
						/>
				</g>
				<g>
					<path d="M155.581,111.748c6.648-0.936,12.053,4.148,12.039,11.324c-0.014,7.186-5.439,13.783-12.088,14.717
						c-6.656,0.936-12.052-4.141-12.038-11.324C143.507,119.287,148.925,112.684,155.581,111.748z"/>
				</g>
				<g>
					<path d="M170.365,106.791c0.991-0.139,1.85-0.869,2.278-1.818c3.971,3.982,6.403,9.766,6.391,16.496
						c-0.014,7.146-2.778,13.998-7.208,19.232c-0.43-0.291-0.967-0.424-1.548-0.342c-1.418,0.199-2.573,1.598-2.576,3.135
						c-0.001,0.387,0.072,0.742,0.204,1.059c-3.603,2.93-7.853,4.928-12.397,5.566c-4.547,0.639-8.794-0.166-12.389-2.084
						c0.132-0.352,0.206-0.729,0.207-1.113c0.003-1.539-1.14-2.615-2.559-2.416c-0.585,0.082-1.124,0.367-1.556,0.781
						c-4.413-3.992-7.154-10.07-7.142-17.217c0.013-6.746,2.479-13.229,6.483-18.336c0.423,0.846,1.291,1.346,2.294,1.205
						c1.417-0.199,2.573-1.605,2.576-3.137c0.001-0.924-0.419-1.686-1.063-2.1c3.775-3.314,8.337-5.587,13.243-6.277
						c4.911-0.69,9.474,0.306,13.242,2.57c-0.636,0.596-1.046,1.465-1.048,2.381C167.796,105.906,168.939,106.99,170.365,106.791z
						 M155.521,143.557c9.596-1.35,17.422-10.877,17.441-21.234c0.02-10.359-7.775-17.691-17.371-16.344
						c-9.597,1.35-17.421,10.877-17.44,21.236S145.925,144.906,155.521,143.557"/>
				</g>
				<g>
					<polygon points="116.033,33.26 106.916,28.3 186.326,17.138 195.444,22.098 					"/>
				</g>
				<g>
					<polygon points="115.778,169.561 106.66,164.6 106.916,28.3 116.033,33.26 					"/>
				</g>
			</g>
		</g>
	</g>
	<rect x="115.078" y="47.352" width="11.989" height="97.388"/>
	<rect x="121.073" y="27.667" width="71.396" height="10.736"/>
</g>
</svg>
