<?xml version="1.0" encoding="utf-8"?>
<!-- Generator: Adobe Illustrator 16.0.0, SVG Export Plug-In . SVG Version: 6.00 Build 0)  -->
<!DOCTYPE svg PUBLIC "-//W3C//DTD SVG 1.1//EN" "http://www.w3.org/Graphics/SVG/1.1/DTD/svg11.dtd">
<svg version="1.1" id="Layer_1" xmlns="http://www.w3.org/2000/svg" xmlns:xlink="http://www.w3.org/1999/xlink" x="0px" y="0px"
	 width="200px" height="200px" viewBox="0 0 200 200" enable-background="new 0 0 200 200" xml:space="preserve">
<g>
	<path d="M194.939,152.28c-0.328-1.351-1.532-2.358-2.987-2.358h-2.896c-3.479-6.022-7.758-13.434-7.758-13.434
		c-0.923-1.59-2.928-2.746-4.763-2.746h-21.396c-1.842,0-3.84,1.156-4.758,2.746c0,0-4.276,7.411-7.755,13.434h-2.904
		c-1.704,0-3.078,1.378-3.078,3.081v19.311h6.414v4.981c0,2.054,1.843,3.72,4.11,3.72c2.273,0,4.119-1.666,4.119-3.72v-4.981h28.615
		v4.981c0,2.054,1.84,3.72,4.113,3.72c2.272,0,4.109-1.666,4.109-3.72v-4.981h6.91v-19.311
		C195.035,152.755,194.997,152.514,194.939,152.28z"/>
	<path d="M126.112,149.922h-2.896c-3.478-6.022-7.757-13.434-7.757-13.434c-0.92-1.59-2.925-2.746-4.763-2.746H89.298
		c-1.835,0-3.839,1.156-4.758,2.746c0,0-4.275,7.411-7.749,13.434h-2.909c-1.701,0-3.08,1.378-3.08,3.081v19.311h6.416v4.981
		c0,2.054,1.842,3.72,4.114,3.72c2.269,0,4.115-1.666,4.115-3.72v-4.981h28.615v4.981c0,2.054,1.84,3.72,4.114,3.72
		c2.273,0,4.109-1.666,4.109-3.72v-4.981h6.91v-19.311c0-0.248-0.038-0.489-0.092-0.723
		C128.775,150.93,127.566,149.922,126.112,149.922z"/>
	<path d="M60.277,149.922h-2.901c-3.478-6.022-7.757-13.434-7.757-13.434c-0.918-1.59-2.92-2.746-4.759-2.746h-21.4
		c-1.836,0-3.836,1.156-4.76,2.746c0,0-4.275,7.411-7.75,13.434H8.042c-1.698,0-3.079,1.378-3.079,3.081v19.311h6.417v4.981
		c0,2.054,1.84,3.72,4.114,3.72c2.267,0,4.113-1.666,4.113-3.72v-4.981h28.614v4.981c0,2.054,1.84,3.72,4.118,3.72
		c2.27,0,4.11-1.666,4.11-3.72v-4.981h6.906v-19.311c0-0.248-0.032-0.489-0.09-0.723C62.936,150.93,61.728,149.922,60.277,149.922z"
		/>
	<path d="M45.636,116.797h-2.393v4.083h2.393h4.082h2.394v-4.083h-2.394V106.62H150.28v10.177h-2.394v4.083h2.394h4.081h2.395
		v-4.083h-2.395V106.62h20.224V23.944H25.413v82.676h20.223V116.797z M32.282,30.816h135.435v68.933H32.282V30.816z"/>
	<rect x="35.718" y="34.25" width="128.563" height="62.064"/>
</g>
</svg>
